<?xml version="1.0" encoding="utf-8"?>
<!-- Generator: Adobe Illustrator 25.3.1, SVG Export Plug-In . SVG Version: 6.00 Build 0)  -->
<svg version="1.1" id="Layer_1" xmlns="http://www.w3.org/2000/svg" xmlns:xlink="http://www.w3.org/1999/xlink" x="0px" y="0px"
	 viewBox="0 0 500 500" style="enable-background:new 0 0 500 500;" xml:space="preserve">
<style type="text/css">
	.st0{fill:#F5F5F5;}
	.st1{fill:#E0E0E0;}
	.st2{fill:#57D3AF;}
	.st3{opacity:0.3;fill:#FFFFFF;enable-background:new    ;}
	.st4{opacity:0.5;fill:#FFFFFF;enable-background:new    ;}
	.st5{opacity:0.7;fill:#FFFFFF;enable-background:new    ;}
	.st6{opacity:0.7;}
	.st7{fill:#FFFFFF;}
	.st8{opacity:0.15;fill:#FFFFFF;enable-background:new    ;}
	.st9{fill:#37474F;}
	.st10{fill:#455A64;}
	.st11{fill:#263238;}
	.st12{opacity:0.15;enable-background:new    ;}
	.st13{opacity:0.1;enable-background:new    ;}
	.st14{fill:#FFA8A7;}
	.st15{fill:#EBEBEB;}
	.st16{fill:#F28F8F;}
	.st17{fill:#F0F0F0;}
	.st18{opacity:0.2;enable-background:new    ;}
	.st19{display:none;fill:#FAFAFA;}
	.st20{opacity:0.8;fill:#FFFFFF;enable-background:new    ;}
	.st21{fill:#B16668;}
	.st22{fill:#874C4C;}
	.st23{opacity:0.35;enable-background:new    ;}
	.st24{opacity:0.25;enable-background:new    ;}
	.st25{fill:#C8856A;}
	.st26{fill:#FAFAFA;}
	.st27{fill:#AF6152;}
	.st28{opacity:0.3;enable-background:new    ;}
	.st29{opacity:0.4;enable-background:new    ;}
</style>
<g id="freepik--Floor--inject-2">
	<path id="freepik--floor--inject-2" class="st0" d="M76.4,423c-95.9-55.4-95.9-145.1,0-200.4s251.3-55.4,347.2,0
		s95.9,145.1,0,200.4S172.3,478.4,76.4,423z"/>
</g>
<g id="freepik--Shadows--inject-2">
	<g id="freepik--Shadow--inject-2">
		<path class="st1" d="M356.9,337.9c-8-4.6-12.4-6-14.4-6.4c-0.8,4.4-3.5,8.1-7.5,10.2c-9.4,4.9-20.6,4.9-30,0
			c-5.2-3-8.1-7.5-8.1-12.4s3-9.4,8.1-12.4c3.1-1.7,6.5-2.8,10-3.1c-1-0.6-2.1-1.3-3.4-2.1L282,294.7l31.6-18.3
			c9.6-5.5,16.8-8.2,22.2-8.2c7.1,0,10.4,4.5,11.1,8.7c0.5,2.7,0.5,2.7,1.6,3.4c5.4,2.6,11.7,2.6,17.1,0c0.6-0.3,1.1-0.7,1.5-1.2
			c-0.4-0.5-0.9-0.9-1.5-1.2c-2.4-1.4-5.3-1.6-10.8-1.9c-8.3-0.5-10.9-4.2-11.7-7.3c-1.6-6.8,5.1-12.3,15.8-18.4l25.2-14.5
			l23.1,13.3c10.6,6.1,17.4,11.6,15.7,18.4c-0.7,3.1-3.3,6.8-11.6,7.3c-5.5,0.3-8.4,0.5-10.8,1.9c-0.6,0.3-1.1,0.7-1.5,1.2
			c0.4,0.5,0.9,0.9,1.5,1.2c5.4,2.6,11.7,2.6,17.1,0c1.2-0.7,1.2-0.7,1.6-3.4c0.7-4.2,4-8.7,11.1-8.7c5.3,0,12.6,2.7,22.1,8.2
			l29.6,17.1l-31.6,18.3c-1.3,0.8-2.4,1.4-3.4,2.1c3.6,0.3,7,1.4,10.1,3.1c5.2,3,8.1,7.5,8.1,12.4s-3,9.4-8.1,12.4
			c-9.4,4.9-20.6,4.9-30,0c-3.9-2.1-6.7-5.8-7.5-10.2c-2.1,0.4-6.4,1.7-14.4,6.3L380,351.3L356.9,337.9z"/>
		<path class="st1" d="M224.8,262.5c-10.5-6.1-17.2-11.5-15.6-18.3c0.7-3.1,3.4-6.8,11.6-7.3c5.5-0.3,8.4-0.5,10.8-1.9
			c0.6-0.3,1.1-0.7,1.5-1.2c-0.4-0.5-0.9-0.9-1.5-1.2c-5.4-2.6-11.7-2.6-17.1,0c-1.2,0.7-1.2,0.7-1.6,3.4c-0.7,4.2-4,8.7-11.1,8.7
			c-5.3,0-12.5-2.6-21.9-8.1l-29.8-17.2l31.6-18.3c9.6-5.5,16.8-8.2,22.2-8.2c7.1,0,10.4,4.5,11.1,8.7c0.5,2.7,0.5,2.7,1.6,3.4
			c5.4,2.6,11.7,2.6,17.1,0c0.6-0.3,1.1-0.7,1.5-1.2c-0.4-0.5-0.9-0.9-1.5-1.2c-2.4-1.4-5.3-1.6-10.8-1.9
			c-8.3-0.5-10.9-4.2-11.7-7.3c-1.6-6.8,5.1-12.3,15.8-18.4l25.2-14.5l23.1,13.3c8,4.6,12.4,6,14.4,6.3c0.8-4.4,3.6-8.1,7.5-10.2
			c9.4-4.9,20.6-4.9,30,0c5.2,3,8.1,7.5,8.1,12.4s-3,9.4-8.1,12.4c-3.1,1.7-6.6,2.8-10.1,3.1c1,0.6,2.1,1.3,3.4,2.1l29.6,17.1
			l-31.6,18.3c-1.3,0.8-2.4,1.4-3.4,2.1c3.6,0.3,7,1.4,10.1,3.1c5.2,3,8.1,7.5,8.1,12.4c0,4.9-3,9.4-8.1,12.4
			c-4.6,2.5-9.8,3.8-15,3.7l0,0c-5.2,0.1-10.4-1.2-15-3.7c-3.9-2.1-6.7-5.8-7.5-10.2c-2.1,0.4-6.4,1.7-14.4,6.3l-25.2,14.5
			L224.8,262.5z"/>
		<path class="st1" d="M220.4,416.2c-8-4.6-12.4-6-14.4-6.3c-0.8,4.4-3.6,8.1-7.5,10.2c-9.4,4.9-20.6,4.9-30.1,0
			c-5.2-3-8.1-7.5-8.1-12.4s3-9.4,8.1-12.4c3.1-1.7,6.6-2.8,10.1-3.1c-1-0.6-2.1-1.3-3.4-2L145.6,373l31.6-18.3
			c1.3-0.8,2.4-1.4,3.4-2.1c-3.5-0.3-7-1.4-10.1-3.1c-5.2-3-8.1-7.5-8.1-12.4s3-9.4,8.1-12.4c9.4-4.9,20.6-4.9,30,0
			c3.9,2.1,6.7,5.8,7.5,10.2c2.1-0.4,6.4-1.7,14.4-6.3l25.2-14.6l23.1,13.3c10.6,6.1,17.4,11.6,15.7,18.4c-0.7,3.1-3.3,6.8-11.6,7.3
			c-5.5,0.3-8.4,0.5-10.8,1.9c-0.6,0.3-1.1,0.7-1.5,1.2c0.4,0.5,0.9,0.9,1.5,1.2c5.4,2.6,11.7,2.6,17.1,0c1.2-0.7,1.2-0.7,1.6-3.4
			c0.7-4.2,4-8.7,11.1-8.7c5.3,0,12.6,2.7,22.1,8.2l29.6,17.1l-31.6,18.3c-9.6,5.5-16.8,8.2-22.2,8.2c-7.1,0-10.4-4.5-11.1-8.7
			c-0.5-2.7-0.5-2.7-1.6-3.4c-5.4-2.6-11.7-2.6-17.1,0c-0.6,0.3-1.1,0.7-1.5,1.2c0.4,0.5,0.9,0.9,1.5,1.2c2.4,1.4,5.3,1.6,10.8,1.9
			c8.3,0.5,10.9,4.2,11.7,7.3c1.6,6.8-5.1,12.3-15.8,18.4l-25.2,14.5L220.4,416.2z"/>
		<path class="st1" d="M88.8,340.2c-10.6-6.1-17.4-11.6-15.7-18.4c0.7-3.1,3.3-6.8,11.7-7.3c5.5-0.3,8.4-0.5,10.8-1.9
			c0.6-0.3,1.1-0.7,1.5-1.2c-0.4-0.5-0.9-0.9-1.5-1.2c-2.6-1.3-5.5-2-8.5-2c-3-0.1-5.9,0.6-8.5,2c-1.2,0.7-1.2,0.7-1.6,3.4
			c-0.7,4.2-4,8.7-11.1,8.7c-5.3,0-12.6-2.7-22.2-8.2L14,297l31.6-18.3c1.3-0.8,2.4-1.4,3.4-2.1c-3.6-0.3-7-1.4-10.1-3.1
			c-5.2-3-8.1-7.5-8.1-12.4s3-9.4,8.1-12.4c4.6-2.5,9.8-3.8,15-3.7c5.2-0.1,10.4,1.2,15,3.7c3.9,2.1,6.7,5.8,7.5,10.2
			c2.1-0.4,6.4-1.7,14.4-6.3l25.1-14.5l23.3,13.4c7.9,4.5,12.2,5.9,14.2,6.2c0.8-4.4,3.6-8.1,7.5-10.2c9.4-4.9,20.6-4.9,30,0
			c5.2,3,8.1,7.5,8.1,12.4s-3,9.4-8.1,12.4c-3.1,1.7-6.6,2.8-10.1,3.1c0.9,0.6,2,1.2,3.2,2l29.9,17.2l-31.6,18.3
			c-9.6,5.5-16.8,8.2-22.2,8.2l0,0c-7.1,0-10.4-4.5-11.1-8.7c-0.5-2.7-0.5-2.7-1.6-3.4c-5.4-2.6-11.7-2.6-17.1,0
			c-0.6,0.3-1.1,0.7-1.5,1.2c0.4,0.5,0.9,0.9,1.5,1.2c2.4,1.4,5.3,1.6,10.8,1.9c8.3,0.5,10.9,4.2,11.6,7.3
			c1.6,6.8-5.1,12.3-15.7,18.4l-25.2,14.5L88.8,340.2z"/>
	</g>
	<path id="freepik--shadow--inject-2" class="st1" d="M58.2,401.1l9.2-5.3c3.1-1.6,6.9-1.6,10,0l3.2,1.9l12-6.9
		c1.2-0.6,2.7-0.6,3.9,0l0.1,0c0.6,0.2,1,0.9,0.8,1.5c-0.1,0.4-0.4,0.6-0.8,0.8l-12,6.9l0.7,0.4c2.8,1.6,2.8,4.2,0,5.8l-9.2,5.3
		l-13.4,7.8l-17.9-10.3L58.2,401.1z"/>
	<path id="freepik--shadow--inject-2_1_" class="st1" d="M132,404.3c0-0.1-0.1-0.2-0.2-0.3l-0.1-0.2l-0.1-0.2l-0.3-0.4
		c-0.1-0.1-0.3-0.3-0.4-0.4c-0.3-0.3-0.7-0.6-1.1-0.9l-0.2-0.1l0,0l-0.2-0.1c-0.8-0.5-1.7-0.8-2.7-0.9l-0.5,0h-0.5h-0.5h-0.2h-0.2
		h-0.1h-0.1c-0.1,0-0.2,0.1-0.3,0.1l0,0c-0.1,0-0.3,0.1-0.4,0.2l0,0c-0.3,0.1-0.5,0.3-0.8,0.4c-0.5,0.3-1,0.7-1.4,1.1
		c-0.2,0.2-0.4,0.4-0.5,0.6s-0.4,0.6-0.6,0.9c-0.1,0.2-0.2,0.4-0.3,0.6l-0.2,0.3c-0.2,0.4-0.3,0.8-0.5,1.1
		c-0.7,0.3-27.1,15.5-32.9,19.1l0,0l-0.7,0.5c-7.6,4.8-16.3,12.9-16.3,12.9l0,0l-0.1,0.1c-0.2,0.3-0.2,0.7,0.1,0.9c0,0,0,0,0,0
		c0.2,0.1,0.4,0.2,0.6,0.1l0,0c6.4-2.5,12.6-5.6,18.6-9.2c6.1-3.8,31.5-20.8,32.6-21.6c1.4,0.3,2.8,0.2,4.1-0.2
		c1.3-0.5,2.5-1.4,3.4-2.5l0,0c0.2-0.3,0.5-0.5,0.7-0.8c0.7-0.6,1.5-0.8,2.4-0.7C132.1,404.4,132.1,404.4,132,404.3z"/>
	<path id="freepik--shadow--inject-2_2_" class="st1" d="M83.7,417.6c-5.2,4.6-10.1,9.6-14.6,14.8l0,0c0,0-0.1,0.1-0.1,0.1
		c-0.2,0.3-0.1,0.7,0.3,0.9c0.2,0.1,0.4,0.1,0.6,0l0,0c6.1-3.3,11.8-7.2,17.3-11.5c4.1-3.4,8.1-7.1,10.6-9.6l0,0c1.1-1,2.1-2,3-3
		l0,0c1.4,0.1,2.8-0.1,4-0.8c1.3-0.7,2.4-1.8,3.1-3.1l0,0c0.2-0.3,0.4-0.6,0.6-0.8c0.6-0.7,1.4-1,2.3-1l-0.2-0.2l-0.2-0.2l-0.1-0.1
		l-0.2-0.2l0,0l-0.4-0.4c-0.1-0.1-0.3-0.2-0.5-0.4c-0.4-0.3-0.8-0.6-1.2-0.8l-0.2-0.1h-0.1l-0.2-0.1c-0.9-0.4-1.8-0.6-2.8-0.6h-0.5
		l-0.5,0c-0.2,0-0.3,0.1-0.5,0.1h-0.2l-0.2,0.1h-0.1h-0.1l-0.3,0.1l0,0l-0.4,0.2l0,0c-0.2,0.1-0.5,0.3-0.7,0.5
		c-0.5,0.4-0.9,0.8-1.2,1.3c-0.2,0.2-0.3,0.4-0.4,0.7c-0.2,0.3-0.4,0.7-0.5,1c-0.1,0.2-0.2,0.4-0.2,0.6s-0.1,0.2-0.1,0.3
		c-0.1,0.4-0.2,0.8-0.3,1.1C97.7,407.5,89.5,412.8,83.7,417.6z"/>
	<path id="freepik--shadow--inject-2_3_" class="st1" d="M39.8,389.5c8,4.6,20.9,4.6,28.8,0s8-12,0-16.6s-20.8-4.6-28.8,0
		S31.8,384.9,39.8,389.5z"/>
	<path id="freepik--shadow--inject-2_4_" class="st1" d="M435.8,403.4c-1,0-2-0.1-2.9-0.4c-2.8-0.8-3.7-2.3-4-3.4
		c-0.2-1.8,0.5-3.6,1.9-4.7c0.4-0.4,1-0.8,1.5-1.2c1.4-1.1,3.1-2.4,3.5-3.4l1.9-5l-1.5-0.8l0.3-0.7l-1.5,0.3l-0.7-0.9
		c-1.5,0.7-5.2,2.5-10.2,5l-3,1.5c-2.1,1.2-4.3,2.2-6.6,2.8c-0.9,0.2-1.8,0.3-2.6,0.3c-1.5,0.1-3-0.4-4.1-1.5
		c-0.8-0.9-1.1-2.2-0.9-3.4c0.5-4.7,9.6-8.7,14.3-9.2c1.5-0.1,3-0.2,4.6-0.2c0.8,0,1.5,0,2.1,0h1.4c0.4,0,0.8,0,1.1,0
		c1.8-0.2,7.4-1.2,7.4-1.2l0.6-0.1l0.4,0.5l1.4-0.3c1.8-1.3,15.9-11.3,19.2-13.5c2.1-1.4,5.8-3.7,6.9-3.7h0.6l0.4,0.6l0.3,0.5
		l-0.4,0.6c-1.5,2.3-3.3,4.3-5.3,6.1c-1.2,0.9-4.6,3.8-8,6.8l25.7-5l-1.1,1.9c-0.3,0.5-2,2.1-10.6,4.6c-5.2,1.5-14.7,3.7-21.9,5.3
		l-1.2,1c-0.1,1.3-0.3,5.2-0.5,7.2c0,0.8,0.1,1.6,0.4,2.4c0.4,1.7,1,3.9-0.4,6C442.4,401.4,439.2,403.3,435.8,403.4z M437.6,396
		c-1.3,0-2.5,0.4-3.4,1.3c-0.3,0.3-0.4,0.6-0.3,1c0.2,0.4,0.6,0.8,1.1,0.8c0.4,0.1,0.8,0.2,1.1,0.1c1.3,0,2.5-0.4,3.4-1.3
		c0.3-0.3,0.4-0.6,0.3-1c-0.2-0.4-0.6-0.8-1.1-0.8C438.4,396.1,438,396,437.6,396L437.6,396z M424.4,382.4c-1.9,0-3.8,0.4-5.5,1
		c-4.9,1.6-6.5,3.6-7,4.7c-0.1,0.1-0.2,0.5-0.1,0.6c0.2,0.2,0.5,0.3,0.8,0.3c0.2,0,0.3,0,0.5-0.1c0.9-0.2,1.8-0.7,2.5-1.2
		c1-0.6,2-1.2,3.1-1.8c2.6-1.3,5.3-2.3,8-3.2h0.1C426.1,382.5,425.3,382.4,424.4,382.4L424.4,382.4z"/>
	<path id="freepik--shadow--inject-2_5_" class="st1" d="M483.5,224l-75.6-43.8c-0.8-0.6-1.9-0.8-2.9-0.6l-0.7,0.4
		c-0.2,0.8,0.1,1.6,0.8,1.9l26.2,15.3l-26.1,15.5l-26.8-15.6c-1.2-0.7-2.4-1.3-3.6-0.6l0,0c-1.2,0.7-0.9,1.2,0.3,1.9l75.4,44.5
		L483.5,224z"/>
</g>
<g id="freepik--Puzzle--inject-2">
	<g id="freepik--puzzle--inject-2">
		<path class="st2" d="M469.1,277.9l-19.9-11.5c-15.4-8.9-22.8-9-23.6-4c-0.6,3.4-1,5.7-4.8,7.9c-6.2,3.6-16.2,3.7-22.8,0.4
			c3.5-1.8,7.3-2,12.8-2.3c3.7-0.2,5.8-1.1,5.8-2.7v-14.5c0-2.2-3.8-5.8-12.7-10.9l-19.9-11.5l-21.9,12.7
			c-8.9,5.1-12.7,8.7-12.7,10.9v14.5c0,1.6,2.1,2.5,5.8,2.7c5.5,0.3,9.3,0.6,12.8,2.3c-6.5,3.3-16.5,3.2-22.8-0.4
			c-3.7-2.2-4.2-4.5-4.8-7.9c-0.9-5-8.2-4.9-23.6,4L295,280.3v14.5l19.5,11.2c-2.2,0.3-4.4,1-6.4,2.1c-3.2,1.9-4.9,4.3-4.9,6.8v14.5
			c0,2.5,1.6,4.9,4.9,6.8c6.5,3.8,17.1,3.8,23.6,0c3.7-2.2,4.2-4.5,4.8-7.9c0.9-5,8.2-4.9,23.6,4l19.9,11.5l21.9-12.7
			c15.4-8.9,22.8-9,23.6-4c0.6,3.4,1,5.7,4.8,7.9c6.5,3.8,17,3.8,23.6,0c3.2-1.9,4.9-4.3,4.9-6.8v-14.5c0-2.5-1.6-4.9-4.9-6.8
			c-2-1.1-4.1-1.8-6.4-2.1l21.6-12.5L469.1,277.9z"/>
		<path class="st3" d="M314.5,306L295,294.8v-14.5l0,0l19.8,11.5c15.4,8.9,15.6,13.1,7,13.6C319,305.5,316.6,305.7,314.5,306z"/>
		<path class="st3" d="M349.5,266.9v-14.5c0,1.6,2.1,2.5,5.8,2.7c5.9,0.3,9.9,0.6,13.6,2.7c6.5,3.8,6.5,9.9,0,13.6
			c-0.3,0.1-0.5,0.3-0.8,0.4c-3.5-1.8-7.3-2-12.8-2.3C351.5,269.4,349.5,268.5,349.5,266.9z"/>
		<path class="st3" d="M360.1,317.9c-15.4-8.9-22.8-9-23.6-4v14.5c0.9-5,8.2-4.9,23.6,4l19.9,11.5v-14.5L360.1,317.9z"/>
		<path class="st3" d="M453.9,320.5c-6.5,3.8-17.1,3.8-23.6,0c-3.7-2.2-4.2-4.5-4.8-7.9v14.5c0.6,3.4,1,5.7,4.8,7.9
			c6.5,3.8,17.1,3.8,23.6,0c3.2-1.9,4.9-4.3,4.9-6.8v-14.5C458.7,316.2,457.1,318.6,453.9,320.5z"/>
		<path class="st4" d="M397.3,256.7c3.7-2.1,7.7-2.4,13.6-2.8c3.7-0.2,5.8-1.1,5.8-2.7v14.5c0,1.6-2.1,2.5-5.8,2.7
			c-5.5,0.3-9.3,0.6-12.8,2.3c-0.3-0.1-0.6-0.3-0.8-0.4C390.8,266.5,390.8,260.4,397.3,256.7z"/>
		<path class="st4" d="M331.7,321.7c-6.5,3.8-17.1,3.8-23.6,0c-3.2-1.9-4.9-4.3-4.9-6.8c0,2.5,0,12,0,14.5s1.6,4.9,4.9,6.8
			c6.5,3.8,17.1,3.8,23.6,0c3.7-2.2,4.2-4.5,4.8-7.9v-14.5C335.9,317.3,335.5,319.6,331.7,321.7z"/>
		<path class="st4" d="M401.9,316.7L380,329.3v14.5l21.9-12.6c15.4-8.9,22.8-9,23.6-4v-14.5C424.6,307.6,417.3,307.8,401.9,316.7z"
			/>
		<path class="st4" d="M469.1,277.9v14.5l-21.6,12.4c-2.1-0.3-4.5-0.5-7.3-0.6c-8.7-0.5-8.5-4.7,7-13.6L469.1,277.9L469.1,277.9z"/>
		<path class="st2" d="M397.3,256.7c3.7-2.1,7.7-2.4,13.7-2.8c8.7-0.5,8.5-4.7-7-13.6l-19.9-11.5l-21.9,12.7
			c-15.4,8.9-15.7,13.1-7,13.6c5.9,0.3,9.9,0.6,13.6,2.7c6.5,3.8,6.5,9.9,0,13.6s-17,3.8-23.6,0c-3.7-2.2-4.2-4.5-4.8-7.9
			c-0.9-5-8.2-4.9-23.6,4L295,280.3l19.9,11.5c15.4,8.9,15.6,13.1,7,13.6c-6,0.3-9.9,0.6-13.7,2.8c-6.5,3.8-6.5,9.9,0,13.6
			s17.1,3.8,23.6,0c3.7-2.2,4.2-4.5,4.8-7.9c0.9-5,8.2-4.9,23.6,4l19.9,11.5l21.9-12.6c15.4-8.9,22.8-9,23.6-4
			c0.6,3.4,1,5.7,4.8,7.9c6.5,3.8,17,3.8,23.6,0s6.5-9.9,0-13.6c-3.7-2.1-7.7-2.4-13.7-2.8c-8.7-0.5-8.5-4.7,7-13.6l21.9-12.7
			l-19.9-11.5c-15.4-8.9-22.8-9-23.6-4c-0.6,3.4-1,5.7-4.8,7.9c-6.5,3.8-17.1,3.8-23.6,0S390.8,260.4,397.3,256.7z"/>
		<path class="st5" d="M397.3,256.7c3.7-2.1,7.7-2.4,13.7-2.8c8.7-0.5,8.5-4.7-7-13.6l-19.9-11.5l-21.9,12.7
			c-15.4,8.9-15.7,13.1-7,13.6c5.9,0.3,9.9,0.6,13.6,2.7c6.5,3.8,6.5,9.9,0,13.6s-17,3.8-23.6,0c-3.7-2.2-4.2-4.5-4.8-7.9
			c-0.9-5-8.2-4.9-23.6,4L295,280.3l19.9,11.5c15.4,8.9,15.6,13.1,7,13.6c-6,0.3-9.9,0.6-13.7,2.8c-6.5,3.8-6.5,9.9,0,13.6
			s17.1,3.8,23.6,0c3.7-2.2,4.2-4.5,4.8-7.9c0.9-5,8.2-4.9,23.6,4l19.9,11.5l21.9-12.6c15.4-8.9,22.8-9,23.6-4
			c0.6,3.4,1,5.7,4.8,7.9c6.5,3.8,17,3.8,23.6,0s6.5-9.9,0-13.6c-3.7-2.1-7.7-2.4-13.7-2.8c-8.7-0.5-8.5-4.7,7-13.6l21.9-12.7
			l-19.9-11.5c-15.4-8.9-22.8-9-23.6-4c-0.6,3.4-1,5.7-4.8,7.9c-6.5,3.8-17.1,3.8-23.6,0S390.8,260.4,397.3,256.7z"/>
		<g class="st6">
			<path class="st7" d="M384.1,231l18.9,10.9c10.7,6.2,11.7,8.8,11.8,9.2c-0.2,0.2-1,0.7-4,0.9c-6,0.3-10.3,0.6-14.5,3
				c-3.8,2.2-5.8,5.2-5.8,8.4s2.1,6.3,5.8,8.4c8,4.1,17.5,4.1,25.5,0c4.6-2.6,5.1-5.8,5.7-9.2c0.1-0.6,0.3-1.8,2.9-1.8
				s7.8,1.2,18,7.1l17,9.8l-19.1,11c-13,7.5-14.1,11-13.6,13.4c0.8,3.4,5.8,3.7,7.4,3.8c6.2,0.4,9.6,0.6,12.8,2.5
				c2.5,1.5,4,3.3,4,5.2s-1.4,3.7-4,5.2c-6.8,3.4-14.9,3.4-21.7,0c-3-1.8-3.3-3.4-3.9-6.6s-2.9-4.9-6.6-4.9
				c-4.4,0-11.1,2.5-19.9,7.6l-21,12.1L361,316.2c-8.7-5-15.4-7.6-19.9-7.6c-3.6,0-6,1.8-6.6,4.9s-0.8,4.8-3.9,6.6
				c-6.8,3.4-14.9,3.4-21.7,0c-2.5-1.5-3.9-3.3-3.9-5.2s1.4-3.7,3.9-5.2c3.3-1.9,6.6-2.1,12.8-2.5c1.6-0.1,6.6-0.4,7.5-3.8
				c0.6-2.4-0.6-5.9-13.6-13.4l-17-9.8l19.1-11c10.2-5.9,15.4-7.1,18-7.1s2.8,1.1,2.9,1.8c0.6,3.4,1.1,6.6,5.7,9.2
				c8,4.1,17.5,4.1,25.5,0c3.8-2.2,5.8-5.2,5.8-8.4s-2.1-6.3-5.8-8.4c-4.2-2.4-8.5-2.7-14.5-3c-2.9-0.2-3.8-0.8-4-0.9
				c0.1-0.4,1-3,11.8-9.2L384.1,231 M384.1,228.8l-21.9,12.7c-15.4,8.9-15.7,13.1-7,13.6c5.9,0.3,9.9,0.6,13.6,2.7
				c6.5,3.8,6.5,9.9,0,13.6c-7.4,3.8-16.2,3.8-23.6,0c-3.7-2.2-4.2-4.5-4.8-7.9c-0.4-2.1-1.9-3.3-4.7-3.3c-3.8,0-10,2.2-18.9,7.3
				L295,280.3l19.9,11.5c15.4,8.9,15.6,13.1,7,13.6c-6,0.3-9.9,0.6-13.7,2.8c-6.5,3.8-6.5,9.9,0,13.6c7.4,3.8,16.2,3.8,23.6,0
				c3.7-2.2,4.2-4.5,4.8-7.9c0.4-2.1,1.9-3.3,4.7-3.3c3.8,0,10,2.2,18.9,7.3l19.9,11.5l21.9-12.6c8.9-5.1,15.1-7.4,18.9-7.4
				c2.8,0,4.4,1.2,4.7,3.3c0.6,3.4,1,5.7,4.8,7.9c7.4,3.8,16.2,3.8,23.6,0c6.5-3.8,6.5-9.9,0-13.6c-3.7-2.1-7.7-2.4-13.7-2.8
				c-8.7-0.5-8.5-4.7,7-13.6l21.9-12.7l-19.9-11.5c-8.9-5.1-15.1-7.4-18.9-7.4c-2.8,0-4.4,1.2-4.7,3.3c-0.6,3.4-1,5.7-4.8,7.9
				c-7.4,3.8-16.2,3.8-23.6,0c-6.5-3.8-6.5-9.9,0-13.6c3.7-2.1,7.7-2.4,13.7-2.8c8.7-0.5,8.5-4.7-7-13.6L384.1,228.8L384.1,228.8z"
				/>
		</g>
		<path class="st2" d="M337.2,202.5l-19.5-11.3c2.2-0.3,4.4-1,6.4-2.1c3.3-1.9,4.9-4.3,4.9-6.8v-14.5c0-2.5-1.6-4.9-4.9-6.8
			c-6.5-3.8-17.1-3.8-23.6,0c-3.7,2.2-4.2,4.4-4.8,7.9c-0.9,5-8.2,4.9-23.6-4l-19.9-11.5l-21.9,12.6c-8.9,5.1-12.7,8.7-12.7,10.9
			v14.5c0,1.6,2.1,2.5,5.8,2.7c5.5,0.3,9.3,0.6,12.8,2.3c-6.6,3.3-16.5,3.2-22.8-0.4c-3.7-2.1-4.2-4.4-4.8-7.9
			c-0.9-5-8.2-4.9-23.6,4l-21.9,12.7v14.5l20,11.6c15.3,8.8,22.6,8.9,23.4,3.9c0.6-3.4,1-5.7,4.8-7.9c6.2-3.6,16.2-3.7,22.8-0.4
			c-3.5,1.8-7.3,2-12.8,2.3c-3.7,0.2-5.8,1.1-5.8,2.7V246c0,2.2,3.8,5.7,12.5,10.8l20,11.6l22-12.6c15.4-8.9,22.8-9,23.6-4
			c0.6,3.4,1,5.7,4.8,7.9c6.5,3.8,17.1,3.8,23.6,0c3.2-1.9,4.9-4.3,4.9-6.8s0-12,0-14.5s-1.6-4.9-4.9-6.8c-2-1.1-4.1-1.8-6.4-2.1
			l21.6-12.4V202.5z"/>
		<path class="st4" d="M308.3,228.8c2.8,0.2,5.2,0.3,7.3,0.6l0,0l21.6-12.4v-14.5l-21.9,12.7C299.9,224.1,299.6,228.3,308.3,228.8z"
			/>
		<path class="st3" d="M237,182.5c-3.7-2.2-7.7-2.4-13.6-2.8c-3.7-0.2-5.8-1.1-5.8-2.8v14.6c0,1.6,2.1,2.5,5.8,2.7
			c5.5,0.3,9.3,0.6,12.9,2.3c0.3-0.1,0.5-0.3,0.8-0.4C243.6,192.3,243.6,186.2,237,182.5z"/>
		<path class="st4" d="M324.1,174.6c-3.7,2.1-7.7,2.4-13.7,2.8c-8.7,0.5-8.5,4.7,7,13.6l0.3,0.2c2.2-0.3,4.4-1,6.4-2.1
			c3.3-1.9,4.9-4.3,4.9-6.8v-14.5C329,170.3,327.3,172.8,324.1,174.6z"/>
		<path class="st3" d="M183.2,216.5l-20-11.6v14.5l20,11.6c15.3,8.8,22.6,8.9,23.4,3.9v-14.5C205.8,225.4,198.5,225.2,183.2,216.5z"
			/>
		<path class="st8" d="M235,212.5c-6.5-3.8-17.1-3.8-23.6,0c-3.7,2.1-4.2,4.4-4.8,7.9v14.5c0.6-3.4,1-5.7,4.8-7.9
			c6.2-3.6,16.2-3.7,22.8-0.4c0,0,0.3-0.1,0.8-0.4C241.5,222.3,241.5,216.2,235,212.5z"/>
		<path class="st3" d="M326.9,238.3c0,2.5-1.6,4.9-4.9,6.8c-6.5,3.8-17.1,3.8-23.6,0c-3.7-2.2-4.2-4.4-4.8-7.9v14.5
			c0.6,3.4,1,5.7,4.8,7.9c6.5,3.8,17.1,3.8,23.6,0c3.2-1.9,4.9-4.3,4.9-6.8S326.9,240.8,326.9,238.3z"/>
		<path class="st4" d="M270,241.3l-21.9,12.7v14.5l21.9-12.7c15.4-8.9,22.8-9,23.6-4v-14.5C292.8,232.2,285.4,232.4,270,241.3z"/>
		<path class="st3" d="M228.1,242.4c-8.9-5.2-12.7-8.8-12.5-11c0,0.1,0,0.1,0,0.1V246c0,2.2,3.8,5.7,12.5,10.8l20,11.6v-14.4
			L228.1,242.4z"/>
		<path class="st2" d="M300.5,161c-3.7,2.2-4.2,4.4-4.8,7.9c-0.9,5-8.2,4.9-23.6-4l-19.9-11.5l-21.9,12.6
			c-15.4,8.9-15.7,13.1-7,13.6c5.9,0.3,9.9,0.6,13.6,2.8c6.5,3.8,6.5,9.9,0,13.6s-17.1,3.8-23.6,0c-3.7-2.1-4.2-4.4-4.8-7.9
			c-0.9-5-8.2-4.9-23.6,4l-21.9,12.7l20,11.6c15.3,8.8,22.6,8.9,23.4,3.9c0.6-3.4,1-5.7,4.8-7.9c6.5-3.8,17.1-3.8,23.6,0
			s6.5,9.9,0,13.6c-3.7,2.1-7.7,2.4-13.7,2.8c-8.7,0.5-8.4,4.7,6.8,13.5l20,11.6l22-12.6c15.4-8.9,22.8-9,23.6-4
			c0.6,3.4,1,5.7,4.8,7.9c6.5,3.8,17.1,3.8,23.6,0s6.5-9.9,0-13.6c-3.7-2.1-7.7-2.4-13.7-2.8c-8.7-0.5-8.5-4.7,7-13.6l21.9-12.7
			L317.4,191c-15.4-8.9-15.6-13.1-7-13.6c6-0.3,9.9-0.6,13.7-2.8c6.5-3.8,6.5-9.9,0-13.6S307,157.3,300.5,161z"/>
		<path class="st5" d="M300.5,161c-3.7,2.2-4.2,4.4-4.8,7.9c-0.9,5-8.2,4.9-23.6-4l-19.9-11.5l-21.9,12.6
			c-15.4,8.9-15.7,13.1-7,13.6c5.9,0.3,9.9,0.6,13.6,2.8c6.5,3.8,6.5,9.9,0,13.6s-17.1,3.8-23.6,0c-3.7-2.1-4.2-4.4-4.8-7.9
			c-0.9-5-8.2-4.9-23.6,4l-21.9,12.7l20,11.6c15.3,8.8,22.6,8.9,23.4,3.9c0.6-3.4,1-5.7,4.8-7.9c6.5-3.8,17.1-3.8,23.6,0
			s6.5,9.9,0,13.6c-3.7,2.1-7.7,2.4-13.7,2.8c-8.7,0.5-8.4,4.7,6.8,13.5l20,11.6l22-12.6c15.4-8.9,22.8-9,23.6-4
			c0.6,3.4,1,5.7,4.8,7.9c6.5,3.8,17.1,3.8,23.6,0s6.5-9.9,0-13.6c-3.7-2.1-7.7-2.4-13.7-2.8c-8.7-0.5-8.5-4.7,7-13.6l21.9-12.7
			L317.4,191c-15.4-8.9-15.6-13.1-7-13.6c6-0.3,9.9-0.6,13.7-2.8c6.5-3.8,6.5-9.9,0-13.6S307,157.3,300.5,161z"/>
		<g class="st6">
			<path class="st7" d="M252.3,155.6l18.9,10.9c8.7,5,15.4,7.6,19.9,7.6c3.6,0,6-1.8,6.6-4.9s0.8-4.8,3.9-6.6
				c6.8-3.4,14.9-3.4,21.7,0c2.5,1.5,3.9,3.3,3.9,5.2s-1.4,3.7-3.9,5.2c-3.3,1.9-6.6,2.1-12.8,2.5c-1.6,0.1-6.6,0.4-7.5,3.8
				c-0.6,2.4,0.6,5.9,13.6,13.4l17,9.8l-19.1,11c-13,7.5-14.1,11-13.6,13.4c0.8,3.4,5.8,3.7,7.4,3.8c6.2,0.4,9.6,0.6,12.8,2.5
				c2.5,1.5,4,3.3,4,5.2s-1.4,3.7-4,5.2c-6.8,3.4-14.9,3.4-21.7,0c-3-1.8-3.3-3.4-3.9-6.6s-2.9-4.9-6.6-4.9
				c-4.4,0-11.1,2.6-19.9,7.6l-21,12.1l-19.1-11c-10.5-6.1-11.5-8.7-11.6-9.1c0.2-0.2,1-0.7,4-0.9c6-0.3,10.3-0.6,14.5-3
				c3.8-2.2,5.8-5.2,5.8-8.4s-2.1-6.3-5.8-8.4c-8-4.1-17.5-4.1-25.4,0c-4.6,2.6-5.1,5.8-5.7,9.2c-0.1,0.6-0.3,1.8-2.9,1.8
				s-7.7-1.2-17.8-7l-17.2-9.9l19.1-11c10.2-5.9,15.4-7.1,18-7.1s2.8,1.1,2.9,1.8c0.6,3.4,1.1,6.6,5.7,9.2c8,4.1,17.5,4.1,25.5,0
				c3.8-2.2,5.8-5.2,5.8-8.4s-2.1-6.3-5.8-8.4c-4.2-2.4-8.5-2.7-14.5-3c-3-0.2-3.8-0.8-4-0.9c0.1-0.4,1-3,11.8-9.2L252.3,155.6
				 M252.3,153.4l-21.9,12.6c-15.4,8.9-15.7,13.1-7,13.6c5.9,0.3,9.9,0.6,13.6,2.8c6.5,3.8,6.5,9.9,0,13.6c-7.4,3.8-16.2,3.8-23.6,0
				c-3.7-2.1-4.2-4.4-4.8-7.9c-0.4-2.1-1.9-3.3-4.7-3.3c-3.8,0-10,2.2-18.9,7.4l-21.9,12.7l20,11.6c8.8,5,14.9,7.2,18.7,7.2
				c2.8,0,4.4-1.2,4.7-3.3c0.6-3.4,1-5.7,4.8-7.9c7.4-3.8,16.2-3.8,23.6,0c6.5,3.8,6.5,9.9,0,13.6c-3.7,2.1-7.7,2.4-13.7,2.8
				c-8.7,0.5-8.4,4.7,6.8,13.5l20,11.6l22-12.7c8.9-5.1,15.1-7.3,18.9-7.3c2.8,0,4.4,1.2,4.7,3.3c0.6,3.4,1,5.7,4.8,7.9
				c7.4,3.8,16.2,3.8,23.6,0c6.5-3.8,6.5-9.9,0-13.6c-3.7-2.1-7.7-2.4-13.7-2.8c-8.7-0.5-8.5-4.7,7-13.6l21.9-12.7L317.4,191
				c-15.4-8.9-15.6-13.1-7-13.6c6-0.3,9.9-0.6,13.7-2.8c6.5-3.8,6.5-9.9,0-13.6c-7.4-3.8-16.2-3.8-23.6,0c-3.7,2.2-4.2,4.4-4.8,7.9
				c-0.4,2.1-1.9,3.3-4.7,3.3c-3.8,0-10-2.2-18.9-7.3L252.3,153.4L252.3,153.4z"/>
		</g>
		<path class="st2" d="M332.6,356.1l-19.9-11.5c-15.4-8.9-22.8-9-23.6-4c-0.6,3.4-1,5.7-4.8,7.9c-6.2,3.6-16.2,3.8-22.8,0.4
			c3.5-1.8,7.3-2,12.8-2.3c3.7-0.2,5.8-1.1,5.8-2.7v-14.5c0-2.2-3.8-5.8-12.7-10.9L247.6,307l-21.9,12.7c-15.4,8.9-22.8,9-23.6,4
			c-0.6-3.4-1-5.7-4.8-7.9c-6.5-3.8-17.1-3.8-23.6,0c-3.3,1.9-4.9,4.3-4.9,6.8v14.5c0,2.5,1.6,4.9,4.9,6.8c2,1.1,4.1,1.8,6.4,2.1
			l-21.6,12.5V373l19.5,11.2c-2.2,0.3-4.4,1-6.4,2.1c-3.2,1.9-4.9,4.3-4.9,6.8v14.5c0,2.5,1.6,4.9,4.9,6.8c6.5,3.8,17.1,3.8,23.6,0
			c3.7-2.1,4.2-4.5,4.8-7.9c0.9-5,8.2-4.9,23.6,4l19.9,11.5l21.9-12.7c8.9-5.1,12.7-8.7,12.7-10.9c0-1.6,0-12.2,0-14.5
			c0-1.6-2.1-2.5-5.8-2.7c-5.5-0.3-9.3-0.6-12.8-2.3c6.5-3.3,16.5-3.2,22.8,0.4c3.7,2.2,4.2,4.5,4.8,7.9c0.9,5,8.2,4.9,23.6-4
			l21.9-12.7L332.6,356.1z"/>
		<path class="st4" d="M310.7,368.8c-15.4,8.9-22.8,9-23.6,4v14.5c0.9,5,8.2,4.9,23.6-4l21.9-12.7v-14.5L310.7,368.8z"/>
		<path class="st4" d="M260.8,348.5c0.3,0.2,0.5,0.3,0.8,0.4c3.5-1.8,7.3-2,12.8-2.3c3.7-0.2,5.8-1.1,5.8-2.7v-14.5
			c0,1.6-2.1,2.5-5.8,2.7c-6,0.3-9.9,0.6-13.6,2.8C254.3,338.6,254.3,344.8,260.8,348.5z"/>
		<path class="st4" d="M278.1,384c0,2.2-3.9,5.8-12.7,10.9l-21.9,12.7V422l21.9-12.7c8.9-5.1,12.7-8.7,12.7-10.9V384z"/>
		<path class="st4" d="M195.2,400c-6.5,3.8-17.1,3.8-23.6,0c-3.2-1.9-4.9-4.3-4.9-6.8v14.5c0,2.5,1.6,4.9,4.9,6.8
			c6.5,3.8,17.1,3.8,23.6,0c3.7-2.1,4.2-4.5,4.8-7.9v-14.5C199.4,395.5,199,397.8,195.2,400z"/>
		<path class="st3" d="M282.3,364.9c-6.5-3.8-17.1-3.8-23.6,0s-6.5,9.9,0,13.6c0.3,0.2,0.5,0.3,0.8,0.4c6.5-3.3,16.5-3.2,22.8,0.4
			c3.7,2.2,4.2,4.5,4.8,7.9v-14.5C286.5,369.3,286,367,282.3,364.9z"/>
		<path class="st3" d="M223.6,396.1c-15.4-8.9-22.8-9-23.6-4v14.5c0.9-5,8.2-4.9,23.6,4l19.9,11.4v-14.5L223.6,396.1z"/>
		<path class="st3" d="M173.7,343.9c2,1.1,4.1,1.8,6.4,2.1l0.3-0.2c15.4-8.9,15.6-13.1,7-13.6c-5.9-0.3-9.9-0.6-13.6-2.8
			c-3.3-1.9-4.9-4.3-4.9-6.8v14.5C168.9,339.6,170.5,342,173.7,343.9z"/>
		<path class="st3" d="M185.3,383.6c8.7-0.5,8.5-4.7-6.9-13.6l-19.9-11.5V373l19.5,11.2C180.1,383.9,182.5,383.8,185.3,383.6z"/>
		<path class="st2" d="M260.8,334.9c3.7-2.2,7.7-2.4,13.7-2.8c8.7-0.5,8.5-4.8-7-13.6L247.6,307l-21.9,12.7c-15.4,8.9-22.8,9-23.6,4
			c-0.6-3.4-1-5.7-4.8-7.9c-6.5-3.8-17.1-3.8-23.6,0s-6.5,9.8,0,13.6c3.7,2.2,7.7,2.4,13.6,2.8c8.7,0.5,8.5,4.7-7,13.6l-21.9,12.6
			l19.9,11.5c15.4,8.9,15.6,13.1,7,13.6c-5.9,0.3-9.9,0.6-13.7,2.8c-6.5,3.8-6.5,9.8,0,13.6s17.1,3.8,23.6,0
			c3.7-2.1,4.2-4.5,4.8-7.9c0.9-5,8.2-4.9,23.6,4l19.9,11.5l21.9-12.7c15.4-8.9,15.7-13.1,7-13.6c-5.9-0.3-9.9-0.6-13.6-2.8
			c-6.5-3.8-6.5-9.9,0-13.6c6.5-3.8,17.1-3.8,23.6,0c3.7,2.1,4.2,4.5,4.8,7.9c0.9,5,8.2,4.9,23.6-4l21.9-12.7l-19.9-11.5
			c-15.4-8.9-22.8-9-23.6-4c-0.6,3.4-1,5.7-4.8,7.9c-6.5,3.8-17.1,3.8-23.6,0S254.3,338.7,260.8,334.9z"/>
		<path class="st5" d="M260.8,334.9c3.7-2.2,7.7-2.4,13.7-2.8c8.7-0.5,8.5-4.8-7-13.6L247.6,307l-21.9,12.7c-15.4,8.9-22.8,9-23.6,4
			c-0.6-3.4-1-5.7-4.8-7.9c-6.5-3.8-17.1-3.8-23.6,0s-6.5,9.8,0,13.6c3.7,2.2,7.7,2.4,13.6,2.8c8.7,0.5,8.5,4.7-7,13.6l-21.9,12.6
			l19.9,11.5c15.4,8.9,15.6,13.1,7,13.6c-5.9,0.3-9.9,0.6-13.7,2.8c-6.5,3.8-6.5,9.8,0,13.6s17.1,3.8,23.6,0
			c3.7-2.1,4.2-4.5,4.8-7.9c0.9-5,8.2-4.9,23.6,4l19.9,11.5l21.9-12.7c15.4-8.9,15.7-13.1,7-13.6c-5.9-0.3-9.9-0.6-13.6-2.8
			c-6.5-3.8-6.5-9.9,0-13.6c6.5-3.8,17.1-3.8,23.6,0c3.7,2.1,4.2,4.5,4.8,7.9c0.9,5,8.2,4.9,23.6-4l21.9-12.7l-19.9-11.5
			c-15.4-8.9-22.8-9-23.6-4c-0.6,3.4-1,5.7-4.8,7.9c-6.5,3.8-17.1,3.8-23.6,0S254.3,338.7,260.8,334.9z"/>
		<g class="st6">
			<path class="st7" d="M247.6,309.2l18.9,10.9c10.7,6.2,11.7,8.8,11.8,9.2c-0.2,0.1-1,0.7-4,0.9c-6,0.3-10.3,0.6-14.5,3
				c-3.8,2.2-5.8,5.2-5.8,8.4s2.1,6.3,5.8,8.4c8,4.1,17.5,4.1,25.5,0c4.6-2.6,5.1-5.8,5.7-9.2c0.1-0.6,0.3-1.8,2.9-1.8
				s7.8,1.2,18,7.1l17,9.8l-19.1,11c-10.2,5.9-15.4,7.1-18,7.1s-2.8-1.1-2.9-1.8c-0.6-3.4-1.1-6.6-5.7-9.2c-8-4.1-17.5-4.1-25.5,0
				c-3.8,2.2-5.8,5.2-5.8,8.4s2.1,6.3,5.8,8.4c4.2,2.4,8.5,2.7,14.5,3c2.9,0.2,3.8,0.8,4,0.9c-0.1,0.4-1,3-11.8,9.2l-21,12.1
				l-18.9-10.9c-8.7-5-15.4-7.6-19.9-7.6c-3.6,0-6,1.8-6.6,4.9s-0.8,4.8-3.9,6.6c-6.8,3.4-14.9,3.4-21.7,0c-2.5-1.5-3.9-3.3-3.9-5.2
				s1.4-3.7,3.9-5.2c3.3-1.9,6.6-2.1,12.8-2.5c1.6-0.1,6.6-0.4,7.4-3.8c0.6-2.4-0.6-5.9-13.6-13.4l-17-9.8l19.1-11
				c13-7.5,14.1-11,13.6-13.4c-0.8-3.4-5.8-3.7-7.4-3.8c-6.2-0.4-9.6-0.6-12.8-2.5c-2.5-1.5-3.9-3.3-3.9-5.2s1.4-3.7,3.9-5.2
				c6.8-3.4,14.9-3.4,21.7,0c3,1.8,3.3,3.4,3.9,6.6s2.9,4.9,6.6,4.9c4.4,0,11.1-2.5,19.9-7.6L247.6,309.2 M247.6,307l-21.9,12.7
				c-8.9,5.1-15.1,7.4-18.9,7.4c-2.8,0-4.4-1.2-4.7-3.3c-0.6-3.4-1-5.7-4.8-7.9c-7.4-3.8-16.2-3.8-23.6,0c-6.5,3.8-6.5,9.8,0,13.6
				c3.7,2.2,7.7,2.4,13.6,2.8c8.7,0.5,8.5,4.7-7,13.6l-21.9,12.6l19.9,11.5c15.4,8.9,15.6,13.1,7,13.6c-5.9,0.3-9.9,0.6-13.7,2.8
				c-6.5,3.8-6.5,9.8,0,13.6c7.4,3.8,16.2,3.8,23.6,0c3.7-2.1,4.2-4.5,4.8-7.9c0.4-2.1,1.9-3.3,4.7-3.3c3.8,0,10,2.2,18.9,7.4
				l19.9,11.5l21.9-12.7c15.4-8.9,15.7-13.1,7-13.6c-5.9-0.3-9.9-0.6-13.6-2.8c-6.5-3.8-6.5-9.9,0-13.6c7.4-3.8,16.2-3.8,23.6,0
				c3.7,2.1,4.2,4.5,4.8,7.9c0.4,2.1,1.9,3.3,4.7,3.3c3.8,0,10-2.2,18.9-7.3l21.9-12.7l-19.9-11.5c-8.9-5.1-15.1-7.4-18.9-7.4
				c-2.8,0-4.4,1.2-4.7,3.3c-0.6,3.4-1,5.7-4.8,7.9c-7.4,3.8-16.2,3.8-23.6,0c-6.5-3.8-6.5-9.8,0-13.6c3.7-2.2,7.7-2.4,13.7-2.8
				c8.7-0.5,8.5-4.8-7-13.6L247.6,307L247.6,307z"/>
		</g>
		<path class="st2" d="M201,280.1l-19.5-11.3c2.2-0.3,4.4-1,6.4-2.1c3.3-1.9,4.9-4.4,4.9-6.8v-14.5c0-2.5-1.6-4.9-4.9-6.8
			c-6.5-3.8-17.1-3.8-23.6,0c-3.7,2.1-4.2,4.4-4.8,7.9c-0.9,5-8.1,4.9-23.4-3.9l-20-11.6l-22,12.7c-15.4,8.9-22.8,9-23.6,4
			c-0.6-3.4-1-5.7-4.8-7.9c-6.5-3.8-17.1-3.8-23.6,0c-3.2,1.9-4.9,4.4-4.9,6.8v14.5c0,2.5,1.6,4.9,4.9,6.8c2,1.1,4.1,1.8,6.4,2.1
			l-21.6,12.5V297l19.8,11.5c15.4,8.9,22.8,9,23.6,4c0.6-3.4,1-5.7,4.8-7.9c6.2-3.6,16.2-3.8,22.8-0.4c-3.5,1.8-7.3,2-12.8,2.3
			c-3.7,0.2-5.8,1.1-5.8,2.7c0,2.2,0,12.9,0,14.5c0,2.2,3.8,5.8,12.7,10.9l19.8,11.5l21.9-12.7c8.9-5.1,12.7-8.7,12.7-10.9
			c0-1.6,0-12.2,0-14.5c0-1.6-2.1-2.5-5.8-2.7c-5.5-0.3-9.3-0.6-12.8-2.3c6.6-3.3,16.5-3.2,22.8,0.4c3.7,2.1,4.2,4.5,4.8,7.9
			c0.9,5,8.2,4.9,23.6-4l21.9-12.7V280.1z"/>
		<path class="st4" d="M179.1,292.8c-15.4,8.9-22.8,9-23.6,4v14.5c0.9,5,8.2,4.9,23.6-4l21.9-12.6v-14.5L179.1,292.8z"/>
		<path class="st4" d="M146.5,308c0,0,0-0.1,0-0.1c0.1,2.2-3.7,5.8-12.7,11l-21.9,12.6V346l21.9-12.7c8.9-5.1,12.7-8.7,12.7-10.9
			C146.5,320.8,146.5,310.2,146.5,308z"/>
		<path class="st4" d="M187.8,252.3c-3.7,2.2-7.7,2.4-13.6,2.8c-8.7,0.5-8.4,4.7,6.8,13.5l0.5,0.3c2.2-0.3,4.4-1,6.4-2.1
			c3.3-1.9,4.9-4.4,4.9-6.8v-14.5l0,0C192.7,247.9,191.1,250.4,187.8,252.3z"/>
		<path class="st4" d="M98.7,290.1c-6.5-3.8-17.1-3.8-23.6,0c-3.7,2.2-4.2,4.5-4.8,7.9v14.5c0.6-3.4,1-5.7,4.8-7.9
			c6.2-3.6,16.2-3.8,22.8-0.4l0.8-0.4C105.2,300,105.2,293.9,98.7,290.1z"/>
		<path class="st3" d="M150.7,288.9c-6.5-3.8-17.1-3.8-23.6,0s-6.5,9.9,0,13.6l0.8,0.4c6.6-3.3,16.5-3.2,22.8,0.4
			c3.7,2.1,4.2,4.5,4.8,7.9v-14.5C154.9,293.4,154.4,291.1,150.7,288.9z"/>
		<path class="st3" d="M92,320.1c-9.1-5.2-12.9-8.8-12.7-11c0,0,0,0.1,0,0.1c0,2.2,0,12.9,0,14.5c0,2.2,3.8,5.8,12.7,10.9l19.8,11.5
			v-14.5L92,320.1z"/>
		<path class="st3" d="M46.8,294l-19.8-11.5V297l19.8,11.5c15.4,8.9,22.8,9,23.6,4V298C69.5,303,62.2,302.9,46.8,294z"/>
		<path class="st3" d="M55.8,256.2c-6-0.3-9.9-0.6-13.7-2.8c-3.2-1.9-4.9-4.3-4.9-6.8v14.5c0,2.5,1.6,4.9,4.9,6.8
			c2,1.1,4.1,1.8,6.4,2.1l0.3-0.2C64.3,261,64.5,256.7,55.8,256.2z"/>
		<path class="st2" d="M164.3,238.7c-3.7,2.1-4.2,4.4-4.8,7.9c-0.9,5-8.1,4.9-23.4-3.9l-20-11.6l-22,12.7c-15.4,8.9-22.8,9-23.6,4
			c-0.6-3.4-1-5.7-4.8-7.9c-6.5-3.8-17.1-3.8-23.6,0s-6.5,9.9,0,13.6c3.7,2.2,7.7,2.4,13.7,2.8c8.7,0.5,8.5,4.7-7,13.6l-21.9,12.7
			L46.8,294c15.4,8.9,22.8,9,23.6,4c0.6-3.4,1-5.7,4.8-7.9c6.5-3.8,17-3.8,23.6,0s6.5,9.9,0,13.6c-3.7,2.2-7.7,2.4-13.7,2.8
			c-8.7,0.5-8.4,4.8,7,13.6l19.8,11.5l21.9-12.6c15.4-8.9,15.6-13.1,7-13.6c-6-0.3-9.9-0.6-13.7-2.8c-6.5-3.8-6.5-9.8,0-13.6
			c6.5-3.8,17.1-3.8,23.6,0c3.7,2.1,4.2,4.5,4.8,7.9c0.9,5,8.2,4.9,23.6-4l21.8-12.7l-20-11.6c-15.2-8.8-15.4-13-6.8-13.5
			c5.9-0.3,9.9-0.6,13.6-2.8c6.5-3.8,6.5-9.8,0-13.6S170.8,234.9,164.3,238.7z"/>
		<path class="st5" d="M164.3,238.7c-3.7,2.1-4.2,4.4-4.8,7.9c-0.9,5-8.1,4.9-23.4-3.9l-20-11.6l-22,12.7c-15.4,8.9-22.8,9-23.6,4
			c-0.6-3.4-1-5.7-4.8-7.9c-6.5-3.8-17.1-3.8-23.6,0s-6.5,9.9,0,13.6c3.7,2.2,7.7,2.4,13.7,2.8c8.7,0.5,8.5,4.7-7,13.6l-21.9,12.7
			L46.8,294c15.4,8.9,22.8,9,23.6,4c0.6-3.4,1-5.7,4.8-7.9c6.5-3.8,17-3.8,23.6,0s6.5,9.9,0,13.6c-3.7,2.2-7.7,2.4-13.7,2.8
			c-8.7,0.5-8.4,4.8,7,13.6l19.8,11.5l21.9-12.6c15.4-8.9,15.6-13.1,7-13.6c-6-0.3-9.9-0.6-13.7-2.8c-6.5-3.8-6.5-9.8,0-13.6
			c6.5-3.8,17.1-3.8,23.6,0c3.7,2.1,4.2,4.5,4.8,7.9c0.9,5,8.2,4.9,23.6-4l21.8-12.7l-20-11.6c-15.2-8.8-15.4-13-6.8-13.5
			c5.9-0.3,9.9-0.6,13.6-2.8c6.5-3.8,6.5-9.8,0-13.6S170.8,234.9,164.3,238.7z"/>
		<g class="st6">
			<path class="st7" d="M116,233.2l19.1,11c8.6,5,15.2,7.5,19.7,7.5c3.6,0,6-1.8,6.6-4.9s0.8-4.8,3.9-6.6c6.8-3.4,14.9-3.4,21.7,0
				c2.5,1.5,3.9,3.3,3.9,5.2s-1.4,3.7-3.9,5.2c-3.2,1.9-6.6,2.1-12.8,2.5c-1.6,0.1-6.6,0.4-7.4,3.8c-0.6,2.4,0.6,5.9,13.4,13.3
				l17.2,10l-19.1,11c-10.1,5.9-15.4,7.1-18,7.1s-2.8-1.1-2.9-1.8c-0.6-3.4-1.1-6.6-5.7-9.2c-8-4.1-17.5-4.1-25.4,0
				c-3.8,2.2-5.8,5.2-5.8,8.4s2.1,6.3,5.8,8.4c4.2,2.4,8.5,2.7,14.5,3c3,0.2,3.8,0.7,4,0.9c-0.1,0.4-1,3-11.8,9.2l-21,12.1L93,318.5
				c-10.7-6.2-11.7-8.8-11.8-9.2c0.2-0.2,1.1-0.7,4-0.9c6-0.3,10.3-0.6,14.5-3c3.8-2.2,5.8-5.2,5.8-8.4s-2.1-6.3-5.8-8.4
				c-3.9-2.1-8.3-3.2-12.7-3.1c-4.4-0.1-8.8,1-12.7,3.1c-4.6,2.6-5.1,5.8-5.7,9.2c-0.1,0.6-0.3,1.8-2.8,1.8s-7.8-1.2-18-7.1l-17-9.8
				l19.1-11c13-7.5,14.2-11,13.6-13.4c-0.8-3.4-5.8-3.7-7.4-3.8c-6.2-0.4-9.6-0.6-12.8-2.5c-2.5-1.5-3.9-3.3-3.9-5.2
				s1.4-3.7,3.9-5.2c3.3-1.8,7.1-2.7,10.8-2.6c3.8-0.1,7.5,0.8,10.8,2.6c3,1.7,3.3,3.4,3.8,6.6s2.9,4.9,6.5,4.9
				c4.4,0,11.1-2.6,19.9-7.6L116,233.2 M116.1,231.1l-21.9,12.6c-8.9,5.1-15.1,7.4-18.9,7.4c-2.8,0-4.3-1.2-4.7-3.3
				c-0.6-3.4-1-5.7-4.8-7.9c-3.6-1.9-7.7-2.9-11.8-2.9c-4.1-0.1-8.2,0.9-11.8,2.8c-6.5,3.8-6.5,9.9,0,13.6c3.7,2.2,7.7,2.4,13.7,2.7
				c8.7,0.5,8.5,4.7-7,13.6l-21.9,12.7L46.8,294c8.9,5.1,15.1,7.4,18.9,7.4c2.8,0,4.3-1.2,4.7-3.3c0.6-3.4,1-5.7,4.8-7.9
				c3.6-1.9,7.7-2.9,11.8-2.8c4.1-0.1,8.2,0.9,11.8,2.8c6.5,3.8,6.5,9.9,0,13.6c-3.7,2.2-7.7,2.4-13.7,2.8c-8.7,0.5-8.4,4.8,7,13.6
				l19.8,11.5l21.9-12.6c15.4-8.9,15.6-13.1,7-13.6c-6-0.3-9.9-0.6-13.7-2.8c-6.5-3.8-6.5-9.8,0-13.6c7.4-3.8,16.2-3.8,23.6,0
				c3.7,2.1,4.2,4.5,4.8,7.9c0.4,2.1,1.9,3.3,4.7,3.3c3.8,0,10-2.2,18.9-7.4l21.8-12.6l-20-11.6c-15.2-8.8-15.4-13-6.8-13.5
				c5.9-0.3,9.9-0.6,13.6-2.8c6.5-3.8,6.5-9.8,0-13.6c-7.4-3.8-16.2-3.8-23.6,0c-3.7,2.1-4.2,4.4-4.8,7.9c-0.4,2.1-1.9,3.3-4.7,3.3
				c-3.8,0-9.9-2.2-18.7-7.2L116.1,231.1L116.1,231.1z"/>
		</g>
	</g>
</g>
<g id="freepik--paint-pot--inject-2_1_">
	<g id="freepik--paint-pot--inject-2">
		<path class="st9" d="M71.6,351.9l-34-0.5l-0.3,27.8l0,0c0,2.5,1.6,5,4.9,7c6.6,3.9,17.4,4,24.1,0.3c3.4-1.9,5.1-4.4,5.1-7
			L71.6,351.9z"/>
		<path class="st10" d="M42.6,344.6c-6.7,3.8-6.8,10-0.2,13.9s17.4,4,24.1,0.3s6.8-10,0.2-13.9S49.3,340.8,42.6,344.6z"/>
		<path class="st11" d="M70.1,351.8c0,0.5-0.1,0.9-0.2,1.3c-0.8,1.9-2.2,3.4-4.1,4.3c-3.5,1.8-7.4,2.7-11.3,2.6
			c-3.9,0-7.8-0.9-11.3-2.8c-1.8-0.9-3.2-2.4-3.9-4.3c-0.2-0.5-0.2-0.9-0.2-1.4c0-2.1,1.5-4.1,4.3-5.6c3.5-1.8,7.4-2.7,11.3-2.5
			c3.9,0,7.8,0.9,11.3,2.8C68.7,347.7,70.1,349.7,70.1,351.8z"/>
		<path class="st2" d="M69.9,353.1c-0.8,1.9-2.2,3.4-4.1,4.3c-3.5,1.8-7.4,2.7-11.3,2.6c-3.9,0-7.8-0.9-11.3-2.8
			c-1.8-0.9-3.2-2.4-3.9-4.3c0.8-1.9,2.2-3.4,4.1-4.3c3.5-1.8,7.4-2.7,11.3-2.6c3.9,0,7.8,0.9,11.3,2.8
			C67.7,349.8,69.1,351.3,69.9,353.1z"/>
		<path class="st12" d="M65.8,357.5c0.5-0.3,1.1-0.6,1.6-1c-6.2,3.3-16.9,1.9-20.2-0.7s-3.8-7.1,1.6-9.1c-1.9,0.4-3.7,1.1-5.4,2
			c-1.8,0.9-3.3,2.4-4.1,4.3c0.7,1.9,2.1,3.4,3.9,4.3c3.5,1.9,7.3,2.8,11.3,2.8C58.4,360.1,62.3,359.2,65.8,357.5z"/>
		<path class="st11" d="M61.8,362.3c0.7-0.4,1.3-0.1,1.3,0.8c-0.1,0.9-0.6,1.8-1.4,2.3c-0.7,0.4-1.3,0.1-1.3-0.8
			C60.5,363.7,61,362.9,61.8,362.3z"/>
		<path class="st1" d="M37.5,356.4c-1.9,3.7-5.6,12.5-0.8,16c0.2,0.1,0.4,0.3,0.6,0.4v1.8c-0.5-0.3-1-0.6-1.5-1
			c-7.2-5.4,0.9-19.1,1.3-19.7c0.1-0.2,0.2-0.3,0.4-0.3L37.5,356.4z"/>
		<path class="st1" d="M62.5,364.2c-0.2,0.4-5.5,10.5-14.1,12.5c-1,0.2-2,0.4-3,0.4c-2.9-0.1-5.7-0.9-8.1-2.5v-1.8
			c3.6,2.5,7.2,3.3,10.7,2.5c8-1.9,13.1-11.7,13.1-11.8c0.2-0.4,0.6-0.5,1-0.3C62.5,363.4,62.6,363.8,62.5,364.2
			C62.5,364.2,62.5,364.2,62.5,364.2z"/>
	</g>
</g>
<g id="freepik--Pencil--inject-2">
	<g id="freepik--pencil--inject-2">
		<path id="freepik--shadow--inject-2_6_" class="st13" d="M280.4,437.2c1.5,1.7,3.9,2.9,7.2,3.7c1.7,0.2,3.5-0.1,5-0.9l97.9-57.2
			l11.5-11.7c0.3-0.4,0.3-0.9,0-1.3c-0.2-0.2-0.6-0.3-0.9-0.2l-21.2,7l-98.5,56.8C280.1,434.2,279.4,436,280.4,437.2z"/>
		<path class="st14" d="M380.7,368.8l18.8-3.7c0.3-0.1,0.6,0.1,0.7,0.4c0.1,0.2,0,0.4-0.2,0.6l-12.8,14.5L380.7,368.8z"/>
		<path class="st11" d="M400.1,366c0.2-0.2,0.2-0.6,0-0.8c-0.1-0.2-0.4-0.2-0.6-0.2l-3.7,0.7l0,0c1,0.6,1.6,1.8,1.5,3v0.3L400.1,366
			z"/>
		<path class="st2" d="M305.2,427.6l1.5-0.9l1.9-1.1l78.7-45.1c0.6-2.1,0.4-4.3-0.5-6.2c-1.3-3-3.9-5.4-6.1-5.5l-78.6,45.1l-3.5,2
			C300.9,414.7,307.6,426.4,305.2,427.6z"/>
		<path class="st15" d="M311.1,424.2l3.4-2c1-0.5,0.4-3-0.8-5.6c-1.6-3.4-4.7-6.8-6-6l-2.5,1.5l-0.9,0.5c1.3-0.7,4.4,2.6,6,6
			c1.1,2.5,1.7,4.9,0.9,5.5l0,0L311.1,424.2z"/>
		<path class="st2" d="M312,423.7c2.4-1.2-4.4-12.9-6.8-11.6l-3.5,2c2.4-1.2,9.1,10.4,6.8,11.6L312,423.7z"/>
		<path class="st15" d="M305.2,427.6l3.4-1.9c2.3-1.2-4.1-12.5-6.6-11.8c0,0-0.1,0-0.1,0l-3.4,2
			C300.9,414.7,307.6,426.4,305.2,427.6z"/>
		<path class="st12" d="M400.2,365.4l-0.6-0.3l-13.7,7.5l-82.5,47.3c-0.1-0.2-0.2-0.2-0.3-0.1c2,3.1,3.5,7.1,2.2,7.8l1.5-0.9
			l1.9-1.1l78.7-45.1l0,0l12.8-14.5C400.2,365.8,400.3,365.6,400.2,365.4z"/>
		<path class="st16" d="M290.8,435.8l14.4-8.3c1-0.5,0.5-3-0.7-5.6c-1.6-3.4-4.6-6.8-6-6.1l0,0l-14.5,8.3c-2.9,1.7-0.2,7.9,3,10.7
			C288.2,436,289.5,436.4,290.8,435.8z"/>
		<path class="st13" d="M291.7,431.4c-0.8-3.3-3.5-6.5-5.9-7.1c-0.7-0.3-1.5-0.2-2.2,0.3c-2.2,2,0.4,7.8,3.4,10.4
			c0.9,1,2.4,1.4,3.7,1C291.8,435.2,292.2,433.6,291.7,431.4z"/>
	</g>
</g>
<g id="freepik--Brushes--inject-2">
	<g id="freepik--Brush--inject-2">
		<g id="freepik--brush--inject-2">
			<path class="st2" d="M97.3,404.4L97.3,404.4c-5.2,3.4-10.1,7.1-14.9,11c-5.2,4.5-10.1,9.5-14.5,14.8l0,0l0,0
				c-0.1,0.2-0.2,0.4-0.1,0.6c0.1,0.4,0.5,0.6,0.9,0.4c0,0,0,0,0,0c0,0,0.1,0,0.1-0.1l0,0c0,0,10.4-5.8,17.3-11.6
				c4.7-4,9.1-8.2,13.3-12.7l0,0c0.2-0.2,0.2-0.5,0.2-0.8c-0.2-0.8-0.8-1.5-1.5-1.8C97.8,404.3,97.6,404.3,97.3,404.4z"/>
			<path class="st13" d="M68.7,431.4c0,0,0.1,0,0.1-0.1l0,0c0,0,10.4-5.8,17.3-11.6c4.6-3.9,9.1-8.3,11.5-10.8l-1.6-1.4
				c0,0-27.7,23.8-28.1,23.4C68,431.2,68.3,431.4,68.7,431.4z"/>
			<path class="st10" d="M99.1,405.1c0.6-0.1,3.9-0.8,5.4-2.7c-0.2-0.3-0.4-0.5-0.4-0.8c-0.4-1.2,0.5-1.7,0.3-2.6s-1.9-0.8-1.9-0.8
				l0,0c-1.4,0.4-2.7,1.3-3.6,2.5c-0.8,1.1-1.4,2.4-1.5,3.8l2.1,2.6l0,0L99.1,405.1z"/>
			<path class="st9" d="M105.5,404.5c0.2-1.1-0.5-1.4-1.1-2.1c-1.5,1.9-4.8,2.6-5.4,2.7l0.4,1.8c0.4,0,0.8-0.1,1.2-0.1l0.3,0
				l0.7-0.1c0.3-0.1,0.7-0.2,1-0.3c0.2-0.1,0.5-0.2,0.7-0.3c0.5-0.3,1-0.6,1.5-0.9C105.1,404.9,105.3,404.7,105.5,404.5z"/>
			<path class="st2" d="M105.5,404.5c0.1-0.1,0.2-0.2,0.3-0.4l0,0l0.2-0.3l0.1-0.1v-0.1c0,0,0.1-0.1,0.1-0.1l0.1-0.2l0.2-0.4
				c0.1-0.1,0.1-0.3,0.1-0.5s0.1-0.3,0.1-0.5c0.2-0.9,0.1-1.9-0.1-2.8c0-0.1,0-0.1,0-0.2v0l-0.1-0.2c-0.1-0.5-0.3-0.9-0.5-1.3
				c-0.1-0.2-0.2-0.4-0.3-0.5c-0.1-0.1-0.2-0.3-0.3-0.4c0-0.1-0.1-0.1-0.1-0.2l-0.1-0.1l-0.2-0.2l-0.2-0.2c-0.1,0.9-0.7,1.6-1.4,2.1
				c-0.3,0.2-0.6,0.4-0.9,0.5c0,0,1.7-0.1,1.9,0.8s-0.7,1.5-0.3,2.6c0.1,0.3,0.3,0.6,0.4,0.8C105,403.1,105.7,403.4,105.5,404.5
				L105.5,404.5z"/>
			<path class="st13" d="M104.8,395.6c0.8,1.8,0.9,3.8,0.3,5.6c-0.1,0.4-0.3,0.8-0.6,1.1c0.6,0.7,1.3,1,1.1,2.1l0,0
				c0.1-0.1,0.2-0.2,0.3-0.4l0,0l0.2-0.3l0.1-0.1v-0.1c0,0,0.1-0.1,0.1-0.1l0.1-0.2l0.2-0.4c0.1-0.1,0.1-0.3,0.1-0.5
				s0.1-0.3,0.1-0.5c0.2-0.9,0.1-1.9-0.1-2.8c0-0.1,0-0.1,0-0.2v0l-0.1-0.2c-0.1-0.5-0.3-0.9-0.5-1.3c-0.1-0.2-0.2-0.4-0.3-0.5
				c-0.1-0.1-0.2-0.3-0.3-0.4c0-0.1-0.1-0.1-0.1-0.2l-0.1-0.1l-0.2-0.2L104.8,395.6L104.8,395.6z"/>
			<path class="st15" d="M99.4,407c0.2-0.2,0.2-0.5,0.2-0.8c-0.2-0.8-0.8-1.5-1.5-1.8c-0.2-0.1-0.5-0.1-0.8,0
				c-1.1,0.7-2.3,1.5-3.5,2.4c0.3-0.2,0.7-0.2,1,0c0.9,0.4,1.7,1.2,1.9,2.2c0.1,0.4,0,0.7-0.2,1C97.7,408.8,98.7,407.7,99.4,407z"/>
			<path class="st1" d="M96,407.5c0.4,0.4,0.7,0.9,0.8,1.5c0.1,0.4,0,0.7-0.2,1c1.2-1.2,2.2-2.3,3-3c0.2-0.2,0.2-0.5,0.2-0.8
				c-0.1-0.4-0.3-0.8-0.6-1.1l0,0L96,407.5z"/>
		</g>
	</g>
	<g id="freepik--brush--inject-2_2_">
		<g id="freepik--brush--inject-2_1_">
			<path class="st2" d="M119.4,402.6L119.4,402.6c0,0-25.7,15.2-33.4,20.2c-5.8,3.8-11.2,8.1-16.3,12.8l0,0l0,0l0,0
				c-0.1,0.2-0.2,0.4-0.2,0.6c0.1,0.4,0.4,0.6,0.8,0.6c0,0,0,0,0,0h0.2l0,0c0,0,11.1-4.4,18.6-9.3s32.1-22.1,32.1-22.1l0,0
				c0.2-0.2,0.3-0.5,0.2-0.7c-0.1-0.8-0.5-1.6-1.3-2C120,402.6,119.7,402.5,119.4,402.6z"/>
			<path class="st13" d="M117.7,405.6l1.3,1.4c-6,4.2-22.4,15.6-29.1,20l0,0l-0.7,0.5c-7.6,4.9-18.6,9.3-18.6,9.3l0,0h-0.2
				c-0.4,0.1-0.7-0.2-0.8-0.5c0,0,0,0,0,0C69.9,436.8,117.7,405.6,117.7,405.6z"/>
			<path class="st10" d="M121.1,403.6c0.6,0,3.9-0.3,5.7-2c-0.2-0.3-0.3-0.6-0.3-0.9c-0.2-1.2,0.7-1.6,0.6-2.6s-1.8-1-1.8-1l0,0
				c-1.5,0.2-2.8,0.9-3.9,2c-1,1-1.7,2.2-2,3.6l1.8,2.8l0,0L121.1,403.6z"/>
			<path class="st9" d="M127.6,403.8c0.3-1-0.4-1.5-0.8-2.2c-1.7,1.7-5.1,2-5.7,2l0.2,1.9h1.2h0.3h0.7c0.3,0,0.7-0.1,1.1-0.2
				c0.3-0.1,0.5-0.1,0.8-0.2c0.6-0.2,1.1-0.4,1.6-0.7C127.1,404.1,127.4,404,127.6,403.8z"/>
			<path class="st2" d="M127.6,403.8l0.3-0.3l0,0c0.1-0.1,0.2-0.2,0.2-0.2l0.1-0.1c0,0,0-0.1,0-0.1c0,0,0.1-0.1,0.1-0.1
				c0-0.1,0.1-0.1,0.1-0.2c0.1-0.1,0.2-0.3,0.2-0.4c0.1-0.1,0.1-0.3,0.2-0.4s0.1-0.3,0.1-0.4c0.3-0.9,0.4-1.9,0.3-2.8
				c0-0.1,0-0.1,0-0.2v-0.1c0-0.1,0-0.2,0-0.2c-0.1-0.5-0.2-0.9-0.4-1.4c-0.1-0.2-0.1-0.4-0.2-0.5s-0.2-0.3-0.2-0.5
				s-0.1-0.1-0.1-0.2l-0.1-0.2l-0.2-0.3l-0.2-0.2c-0.3,0.8-0.9,1.5-1.7,1.9c-0.3,0.1-0.7,0.3-1,0.3c0,0,1.7,0.1,1.8,1
				s-0.9,1.4-0.6,2.6c0.1,0.3,0.2,0.6,0.3,0.9C127.2,402.3,127.9,402.7,127.6,403.8L127.6,403.8z"/>
			<path class="st13" d="M128,394.9c0.6,1.9,0.4,3.9-0.5,5.6c-0.2,0.4-0.4,0.8-0.8,1.1c0.5,0.8,1.2,1.2,0.8,2.2l0,0l0.3-0.3l0,0
				c0.1-0.1,0.1-0.2,0.2-0.2l0.1-0.1c0,0,0-0.1,0-0.1c0,0,0.1-0.1,0.1-0.1c0-0.1,0.1-0.1,0.1-0.2c0.1-0.1,0.2-0.3,0.2-0.4
				c0.1-0.1,0.1-0.3,0.2-0.4s0.1-0.3,0.1-0.4c0.3-0.9,0.4-1.9,0.3-2.8c0-0.1,0-0.1,0-0.2v-0.1c0-0.1,0-0.2,0-0.2
				c-0.1-0.5-0.2-0.9-0.4-1.4c-0.1-0.2-0.1-0.4-0.2-0.5s-0.2-0.3-0.2-0.5s-0.1-0.1-0.1-0.2l-0.1-0.2l-0.2-0.3L128,394.9L128,394.9z"
				/>
			<path class="st15" d="M121.2,405.4c0.2-0.2,0.3-0.5,0.2-0.7c-0.1-0.8-0.5-1.6-1.3-2c-0.2-0.1-0.5-0.2-0.8-0.1
				c-1.3,0.7-2.6,1.4-3.8,2.3c0.2-0.1,0.6-0.5,1-0.3c0.9,0.5,1.5,1.5,1.6,2.5c0,0.5-0.4,0.6-0.6,0.8
				C118.9,406.9,120.4,406.1,121.2,405.4z"/>
			<path class="st1" d="M117.7,405.6c0.3,0.5,0.5,1,0.6,1.6c0,0.5-0.4,0.6-0.6,0.8c1.2-0.8,2.4-1.6,3.6-2.5c0.2-0.2,0.3-0.5,0.2-0.7
				c0-0.4-0.2-0.8-0.4-1.1l0,0L117.7,405.6L117.7,405.6z"/>
		</g>
	</g>
	<g id="freepik--brush--inject-2_3_">
		<path class="st10" d="M76.7,400.7l17.4-10c0.4-0.3,0.6-0.7,0.5-1.2c-0.1-1.3-0.8-2.5-1.8-3.2c-0.4-0.3-0.9-0.3-1.3-0.1l-17.4,10
			L76.7,400.7z"/>
		<polygon class="st9" points="78.6,393.5 83.8,396.6 76.7,400.7 74.1,396.1 		"/>
		<path class="st9" d="M58.9,401.8l3.5-2l-3.5-2l7.3-4.2c2.5-1.3,5.4-1.3,7.9,0l6.2,3.6c0.9,0.4,1.5,1.2,1.6,2.1c0,0.1,0,3.6,0,4.4
			c-0.1,0.9-0.8,1.8-1.6,2.2L73,410L58.9,401.8z"/>
		<path class="st10" d="M80.2,397.1l-6.2-3.6c-2.5-1.3-5.4-1.3-7.9,0l-7.3,4.2l14.2,8.2l7.3-4.2C82.4,400.5,82.4,398.4,80.2,397.1z"
			/>
		<polygon class="st17" points="73,405.9 58.9,397.8 48.3,403.9 62.4,412 		"/>
		<polygon class="st15" points="73,405.9 62.4,412 62.4,416.1 73,410 		"/>
		<polygon class="st2" points="76.1,404.1 62,395.9 63.5,395.1 77.6,403.2 		"/>
		<polygon class="st2" points="76.1,404.1 76.1,408.2 77.6,407.3 77.6,403.2 		"/>
		<polygon class="st13" points="76.1,404.1 76.1,408.2 77.6,407.3 77.6,403.2 		"/>
		<path class="st2" d="M65.6,414.2c0,0,1.9-2.5,0.9-4.6l-4.1,2.4v4.1L65.6,414.2z"/>
		<path class="st13" d="M65.6,414.2c0,0,1.9-2.5,0.9-4.6l-4.1,2.4v4.1L65.6,414.2z"/>
		<path class="st2" d="M66.5,409.6c-0.2-1.7-1.3-3.2-2.9-3.9c-1.9-0.8-6,0.9-7.7-1.9c-1.2-1.9,0.1-4.5,0.1-4.5l-7.8,4.5l14.1,8.1
			L66.5,409.6z"/>
		<polygon class="st2" points="48.3,403.9 48.3,407.9 62.4,416.1 62.4,412 		"/>
		<polygon class="st12" points="48.3,403.9 48.3,407.9 62.4,416.1 62.4,412 		"/>
	</g>
</g>
<g id="freepik--Scissors--inject-2">
	<g id="freepik--scissors--inject-2">
		<path class="st11" d="M438,377.2l39.4-8.7l0.1,1.1c0,0-0.9,1.4-10.1,4.2s-32,7.5-32,7.5l-0.9-1.3L438,377.2z"/>
		<path class="st9" d="M466.4,359.7c-1.4,2.2-3.1,4.2-5.1,5.9c-2.8,2.2-17.5,15-17.5,15l-4.7,2.6l-1.4-0.8l2.1-5
			c0,0,16.6-11.8,20.3-14.3S466.8,359,466.4,359.7z"/>
		<polygon class="st11" points="437.5,381.2 439,382 438.6,382.9 437.5,382.3 		"/>
		<polygon class="st9" points="466.4,358.4 466.4,359.6 465.2,361.3 465.2,359.5 		"/>
		<path class="st2" d="M443.3,396.1c1.8-2.9-0.3-5.6-0.1-8s0.5-7.6,0.5-7.6l-4.7,2.6l-2.2,5.7c-0.6,1.7-3.5,3.5-5.2,5
			s-3.2,5,1.7,6.4S441.5,399,443.3,396.1z M434.7,398.3c-1.9-0.5-2.4-2.1-1.2-3.4c1.5-1.4,3.6-2,5.5-1.5c1.9,0.5,2.4,2.1,1.2,3.5
			C438.8,398.3,436.7,398.8,434.7,398.3z"/>
		<path class="st18" d="M443.3,396.1c1.8-2.9-0.3-5.6-0.1-8s0.5-7.6,0.5-7.6l-4.7,2.6l-2.2,5.7c-0.6,1.7-3.5,3.5-5.2,5
			s-3.2,5,1.7,6.4S441.5,399,443.3,396.1z M434.7,398.3c-1.9-0.5-2.4-2.1-1.2-3.4c1.5-1.4,3.6-2,5.5-1.5c1.9,0.5,2.4,2.1,1.2,3.5
			C438.8,398.3,436.7,398.8,434.7,398.3z"/>
		<path class="st11" d="M443.5,378.7c-0.6,0.5-1.3,0.6-2,0.4c-0.7-0.2-1-0.7-0.6-1.1c0.5-0.5,1.3-0.6,2-0.4
			C443.6,377.8,443.9,378.3,443.5,378.7z"/>
		<path class="st2" d="M438,376.6c0,0-5.6,1-7.5,1.2s-4.5-0.2-9.2,0.2s-13,4.4-13.4,8.3s3.6,4.1,6.5,3.5s4.5-1.8,9.4-4.2
			c6.6-3.3,10.9-5.4,10.9-5.4l3.7-3L438,376.6z M427.1,381.8c-2.7,0.9-5.3,1.9-7.8,3.2c-3.1,1.5-3.9,2.6-5.9,3.1
			c-1.6,0.4-3.2-0.5-2.4-2.3s3.2-3.8,7.6-5.2s7.9-1.2,9.5-0.3C428.7,380.6,429,381.2,427.1,381.8L427.1,381.8z"/>
		<path class="st18" d="M438,376.6c0,0-5.6,1-7.5,1.2s-4.5-0.2-9.2,0.2s-13,4.4-13.4,8.3s3.6,4.1,6.5,3.5s4.5-1.8,9.4-4.2
			c6.6-3.3,10.9-5.4,10.9-5.4l3.7-3L438,376.6z M427.1,381.8c-2.7,0.9-5.3,1.9-7.8,3.2c-3.1,1.5-3.9,2.6-5.9,3.1
			c-1.6,0.4-3.2-0.5-2.4-2.3s3.2-3.8,7.6-5.2s7.9-1.2,9.5-0.3C428.7,380.6,429,381.2,427.1,381.8L427.1,381.8z"/>
		<polygon class="st11" points="435.5,381.2 435.5,380.1 434.7,379 434.7,380.2 		"/>
		<path class="st9" d="M438,376l39.5-7.7c0,0-0.9,1.4-10.1,4.2s-32,7.5-32,7.5l-0.9-1.3L438,376z"/>
		<path class="st10" d="M466.4,358.5c-1.4,2.2-3.1,4.2-5.1,5.9c-2.8,2.2-17.5,15-17.5,15L439,382l-1.4-0.8l2.1-5
			c0,0,16.7-11.8,20.3-14.3S466.8,357.9,466.4,358.5z"/>
		<path class="st2" d="M443.3,395c1.8-2.8-0.3-5.5-0.1-8s0.5-7.6,0.5-7.6L439,382l-2.2,5.8c-0.6,1.7-3.5,3.5-5.2,5s-3.2,5,1.7,6.4
			S441.5,397.8,443.3,395z M434.7,397.2c-1.9-0.5-2.4-2.1-1.2-3.5c1.5-1.4,3.6-2,5.5-1.5c1.9,0.5,2.4,2.1,1.2,3.5
			C438.8,397.1,436.7,397.7,434.7,397.2L434.7,397.2z"/>
		<path class="st11" d="M443.5,377.6c-0.6,0.5-1.3,0.6-2,0.4c-0.7-0.2-1-0.7-0.6-1.1c0.6-0.5,1.3-0.6,2-0.4
			C443.6,376.6,443.9,377.1,443.5,377.6z"/>
		<path class="st2" d="M438,375.5c0,0-5.6,1-7.5,1.2s-4.5-0.2-9.2,0.2s-13,4.4-13.4,8.3s3.6,4.2,6.5,3.5s4.5-1.8,9.4-4.2
			c6.6-3.3,10.9-5.4,10.9-5.4l3.7-3L438,375.5z M427.1,380.7c-2.7,0.9-5.3,1.9-7.8,3.2c-3.1,1.5-3.9,2.6-5.9,3.1
			c-1.6,0.4-3.2-0.5-2.4-2.3s3.2-3.8,7.6-5.2s7.9-1.2,9.5-0.3C428.7,379.4,429,380,427.1,380.7L427.1,380.7z"/>
	</g>
</g>
<g id="freepik--Ladder--inject-2">
	<g id="freepik--ladder--inject-2">
		<path class="st9" d="M446.5,74.3l-39.4,107.2l0,0c-0.1,0.3-0.4,0.6-0.7,0.7c-1,0.6-3.2-0.2-2.6-1.5L443.4,73
			c0.5-1.3,1.9-2,3.3-1.5C447.9,72,447,73,446.5,74.3z"/>
		<polygon class="st11" points="433.6,171.8 394.1,149 394.8,145.9 434.3,168.7 		"/>
		<path class="st9" d="M418.3,90.1l-39.4,107.2l0,0c-0.1,0.3-0.4,0.6-0.7,0.7c-1,0.6-3.2-0.2-2.6-1.5l39.5-107.8
			c0.5-1.3,1.9-2,3.2-1.5c0,0,0,0,0,0C419.7,87.7,418.8,88.8,418.3,90.1z"/>
		<polygon class="st11" points="462.3,155.3 422.8,132.5 423.5,129.3 463,152.1 		"/>
		<path class="st10" d="M480.1,223.1c-0.1,0.2-0.3,0.4-0.5,0.5c-0.5,0.3-1,0.4-1.5,0.4c-0.5,0-1.1-0.1-1.5-0.4
			c-0.2-0.1-0.4-0.3-0.5-0.6L441.1,60c-0.1-0.4-0.3-0.8-0.6-1c-0.1,0-0.2-0.1-0.3-0.1c-0.3,0-0.6,0.1-0.8,0.3l-21.1,12.1l-2-3.5
			l21.1-12.2c0.9-0.5,1.8-0.8,2.8-0.8c0.7,0,1.3,0.1,2,0.4c1.5,0.7,2.6,2.1,2.9,3.8l35,163.6c0,0.1,0,0.2,0,0.3
			C480.1,223,480.1,223.1,480.1,223.1z"/>
		<path class="st2" d="M450.4,223.7l-12.8-7.4c-0.5-0.3-0.7-0.8-0.8-1.3v-0.3c0-0.5,0.3-1,0.8-1.3l30.8-17.8c0.5-0.2,1-0.2,1.5,0
			l12.8,7.5c0.4,0.3,0.7,0.8,0.8,1.3v0.3c0,0.5-0.3,1-0.8,1.3l-30.8,17.7C451.4,223.9,450.9,223.9,450.4,223.7z"/>
		<path class="st13" d="M437,213.9c-0.1,0.2-0.2,0.5-0.2,0.8v0.3c0,0.5,0.3,1,0.8,1.3l12.8,7.4c0.2,0.1,0.5,0.2,0.8,0.2v-1.8
			L437,213.9z"/>
		<path class="st12" d="M451.1,222.1v1.8c0.3,0,0.5-0.1,0.8-0.2l15.4-8.9l15.4-8.9c0.4-0.3,0.7-0.8,0.8-1.3v-0.3
			c0-0.3-0.1-0.5-0.2-0.8L451.1,222.1z"/>
		<path class="st2" d="M444.8,197.7l-12.8-7.4c-0.5-0.3-0.7-0.8-0.8-1.3v-0.3c0-0.5,0.3-1,0.8-1.3l30.8-17.8c0.5-0.3,1.1-0.3,1.5,0
			l12.8,7.4c0.4,0.3,0.7,0.8,0.8,1.3v0.3c0,0.5-0.3,1-0.8,1.3l-30.8,17.8C445.9,197.9,445.3,197.9,444.8,197.7z"/>
		<path class="st13" d="M431.4,187.9c-0.1,0.2-0.2,0.5-0.2,0.8v0.4c0,0.5,0.3,1,0.8,1.3l12.8,7.4c0.2,0.1,0.5,0.2,0.8,0.2v-1.8
			L431.4,187.9z"/>
		<path class="st12" d="M445.6,196.1v1.8c0.3,0,0.5-0.1,0.8-0.2l15.4-8.9l15.4-8.9c0.4-0.3,0.7-0.8,0.8-1.3v-0.3
			c0-0.3-0.1-0.5-0.2-0.8L445.6,196.1z"/>
		<path class="st2" d="M439.2,171.7l-12.8-7.4c-0.5-0.3-0.7-0.8-0.8-1.3v-0.3c0-0.5,0.3-1,0.8-1.3l30.8-17.8c0.5-0.3,1.1-0.3,1.5,0
			l12.8,7.4c0.5,0.3,0.7,0.8,0.8,1.3v0.3c0,0.5-0.3,1-0.8,1.3l-30.8,17.8C440.3,171.9,439.7,171.9,439.2,171.7z"/>
		<path class="st13" d="M425.9,161.9c-0.1,0.2-0.2,0.5-0.2,0.8v0.3c0,0.5,0.3,1,0.8,1.3l6.4,3.7l6.4,3.7c0.2,0.1,0.5,0.2,0.8,0.2
			V170L425.9,161.9z"/>
		<path class="st12" d="M440,170v1.8c0.3,0,0.5-0.1,0.8-0.2l15.4-8.9l15.4-8.9c0.5-0.3,0.7-0.8,0.8-1.3v-0.3c0-0.3-0.1-0.5-0.2-0.8
			L440,170z"/>
		<path class="st2" d="M433.7,145.7l-12.8-7.4c-0.5-0.3-0.7-0.8-0.8-1.3v-0.3c0-0.5,0.3-1,0.8-1.3l30.8-17.8c0.5-0.3,1.1-0.3,1.5,0
			l12.8,7.4c0.5,0.3,0.7,0.8,0.8,1.3v0.3c0,0.5-0.3,1-0.8,1.3l-30.8,17.8C434.7,145.9,434.2,145.9,433.7,145.7z"/>
		<path class="st12" d="M434.5,144v1.8c0.3,0,0.5-0.1,0.8-0.2l15.4-8.9l15.4-8.9c0.5-0.3,0.7-0.8,0.8-1.3v-0.3
			c0-0.3-0.1-0.5-0.2-0.8L434.5,144z"/>
		<path class="st13" d="M420.3,135.9c-0.1,0.2-0.2,0.5-0.2,0.8v0.3c0,0.5,0.3,1,0.8,1.3l12.8,7.4c0.2,0.1,0.5,0.2,0.8,0.2V144
			L420.3,135.9z"/>
		<path class="st2" d="M428.1,119.7l-21.3-12.3c-0.5-0.3-0.8-0.8-0.8-1.3v-0.3c0-0.5,0.3-1,0.8-1.3l30.8-17.8c0.5-0.2,1-0.2,1.5,0
			l21.3,12.3c0.4,0.3,0.7,0.8,0.8,1.3v0.3c0,0.5-0.3,1-0.8,1.3l-30.8,17.8C429.1,119.9,428.6,119.9,428.1,119.7z"/>
		<path class="st12" d="M428.9,118v1.8c0.3,0,0.5-0.1,0.8-0.2l15.3-8.9l15.4-8.9c0.4-0.3,0.7-0.8,0.8-1.3v-0.3
			c0-0.3-0.1-0.5-0.2-0.8L428.9,118z"/>
		<path class="st13" d="M406.3,105c-0.1,0.2-0.2,0.5-0.2,0.8v0.2c0,0.5,0.3,1,0.8,1.3l21.3,12.3c0.2,0.1,0.5,0.2,0.8,0.2V118
			L406.3,105z"/>
		<path class="st10" d="M451.3,239.7c-0.1,0.2-0.3,0.4-0.5,0.5c-0.5,0.2-1,0.4-1.5,0.4c-0.5,0-1.1-0.1-1.5-0.4
			c-0.2-0.1-0.3-0.2-0.4-0.4l0-0.1v-0.1L412.4,76.6c-0.6-3.4,0.9-6.9,3.9-8.7l2,3.5c-1.4,1-2.2,2.7-1.9,4.4l35,163.6
			c0,0.1,0,0.2,0,0.3C451.3,239.6,451.3,239.7,451.3,239.7z"/>
	</g>
</g>
<g id="freepik--Sign--inject-2">
	<g id="freepik--Placard--inject-2">
		<polyline class="st9" points="29.4,167.5 29.4,101.8 147.2,34 149,35 149,100.5 		"/>
		<polygon class="st10" points="31.2,102.8 31.2,168.5 149,100.5 149,35 		"/>
		<path class="st19" d="M60.3,100.2c0.2-0.1,0.4-0.1,0.6,0c0.2,0.2,0.3,0.5,0.2,0.8v5c0,0.3-0.1,0.7-0.2,1c-0.1,0.3-0.3,0.5-0.6,0.7
			l-5.3,3.1v24c0,0.3-0.1,0.7-0.2,1c-0.1,0.3-0.3,0.5-0.6,0.7l-4,2.3c-0.2,0.1-0.4,0.1-0.6,0c-0.2-0.2-0.3-0.5-0.2-0.8v-24l-5.4,3.1
			c-0.2,0.1-0.4,0.1-0.6,0c-0.2-0.2-0.3-0.5-0.2-0.8v-5c0-0.3,0.1-0.7,0.2-1c0.1-0.3,0.3-0.5,0.6-0.7L60.3,100.2z"/>
		<path class="st19" d="M81.4,113.3c0.2-0.1,0.4-0.1,0.6,0c0.2,0.2,0.3,0.5,0.2,0.8v5c0,0.3-0.1,0.7-0.2,1c-0.1,0.3-0.3,0.5-0.6,0.7
			L67,129.1c-0.2,0.1-0.4,0.1-0.6,0c-0.2-0.2-0.3-0.5-0.2-0.8V98.1c0-0.3,0.1-0.7,0.2-1c0.1-0.3,0.3-0.5,0.6-0.7l14.2-8.2
			c0.2-0.1,0.4-0.1,0.6,0c0.2,0.2,0.3,0.5,0.2,0.8v5c0,0.3-0.1,0.7-0.2,1c-0.1,0.3-0.3,0.5-0.6,0.7l-9.4,5.4v5.1l8.7-5
			c0.2-0.1,0.4-0.1,0.6,0c0.2,0.2,0.3,0.5,0.2,0.8v5c0,0.3-0.1,0.7-0.2,1c-0.1,0.3-0.3,0.5-0.6,0.7l-8.7,5v5.2L81.4,113.3z"/>
		<path class="st19" d="M99.3,77.7c0.4-0.2,0.7-0.2,0.9,0c0.2,0.2,0.4,0.5,0.4,0.8l6.6,25.7c0.1,0.2,0.1,0.4,0.1,0.6
			c0,0.3-0.1,0.6-0.2,0.8c-0.1,0.2-0.3,0.4-0.5,0.6l-3.8,2.2c-0.4,0.2-0.7,0.3-0.9,0.1c-0.2-0.2-0.3-0.4-0.3-0.6l-0.8-3.4l-8.1,4.7
			l-0.8,4.4c-0.1,0.3-0.2,0.7-0.3,1c-0.2,0.4-0.5,0.7-0.9,0.9l-3.8,2.2c-0.1,0.1-0.3,0.1-0.5,0c-0.1-0.2-0.2-0.4-0.2-0.6
			c0-0.3,0.1-0.5,0.1-0.8L93,82.9c0.1-0.4,0.2-0.9,0.4-1.3c0.2-0.4,0.5-0.8,0.9-1L99.3,77.7z M94.3,101l4.9-2.8l-2.5-9.8L94.3,101z"
			/>
		<path class="st19" d="M121,89.7c-0.2-0.2-0.3-0.3-0.4-0.5l-2.9-6.1v15.5c0,0.3-0.1,0.7-0.2,1c-0.1,0.3-0.3,0.5-0.6,0.7l-4,2.3
			c-0.2,0.1-0.4,0.1-0.6,0c-0.2-0.2-0.3-0.5-0.2-0.8V71.6c0-0.3,0.1-0.7,0.2-1c0.1-0.3,0.3-0.5,0.6-0.7l3.5-2c0.4-0.2,0.7-0.2,0.9,0
			c0.1,0.2,0.3,0.3,0.4,0.5l4.9,10.1l4.9-15.8c0.1-0.2,0.2-0.5,0.4-1c0.2-0.4,0.5-0.8,0.9-1l3.5-2c0.2-0.1,0.4-0.1,0.6,0
			c0.2,0.2,0.3,0.5,0.2,0.8v30.2c0,0.3-0.1,0.7-0.2,1c-0.1,0.3-0.3,0.5-0.6,0.7l-4,2.3c-0.2,0.1-0.4,0.1-0.6,0
			c-0.2-0.2-0.3-0.5-0.2-0.8V77.4l-2.9,9.4c-0.1,0.3-0.3,0.7-0.4,1c-0.1,0.3-0.4,0.6-0.7,0.8l-1.9,1.1
			C121.4,89.8,121.2,89.9,121,89.7z"/>
		<polygon class="st11" points="29.4,101.8 29.4,167.5 31.2,168.5 31.2,102.8 		"/>
		<g id="freepik--Tape--inject-2">
			<polygon class="st2" points="147.2,49.5 145.9,50.1 145.9,48.3 144.6,49 144.5,47.2 143.2,47.8 143.1,46.1 141.8,46.7 
				141.8,44.9 140.5,45.6 140.4,43.8 148.2,28.6 149.5,28 149.6,29.8 150.9,29.1 151,30.9 152.3,30.2 152.3,32 153.6,31.4 
				153.7,33.2 155,32.5 155.1,34.3 			"/>
			<polygon class="st20" points="147.2,49.5 145.9,50.1 145.9,48.3 144.6,49 144.5,47.2 143.2,47.8 143.1,46.1 141.8,46.7 
				141.8,44.9 140.5,45.6 140.4,43.8 148.2,28.6 149.5,28 149.6,29.8 150.9,29.1 151,30.9 152.3,30.2 152.3,32 153.6,31.4 
				153.7,33.2 155,32.5 155.1,34.3 			"/>
		</g>
		<g id="freepik--tape--inject-2">
			<polygon class="st2" points="19.9,99 19.5,97.4 20.8,97.2 20.4,95.5 21.6,95.3 21.3,93.7 22.5,93.5 22.2,91.8 23.4,91.6 23.1,90 
				24.3,89.8 38.8,102.8 39.2,104.4 37.9,104.6 38.3,106.2 37,106.5 37.4,108.1 36.2,108.3 36.5,109.9 35.3,110.2 35.6,111.8 
				34.4,112 			"/>
			<polygon class="st20" points="19.9,99 19.5,97.4 20.8,97.2 20.4,95.5 21.6,95.3 21.3,93.7 22.5,93.5 22.2,91.8 23.4,91.6 
				23.1,90 24.3,89.8 38.8,102.8 39.2,104.4 37.9,104.6 38.3,106.2 37,106.5 37.4,108.1 36.2,108.3 36.5,109.9 35.3,110.2 
				35.6,111.8 34.4,112 			"/>
		</g>
	</g>
	<g id="Layer_2_1_">
		<g id="Layer_1-2">
			<g id="Layer_2-2">
				<g id="Layer_1-2-2">
					<path class="st2" d="M63.3,131.8l-8.7,5.1l-12-23.5l8.5-4.9l7.8,18.1l7.9-27.2l8.2-4.7L63.3,131.8z"/>
					<path class="st2" d="M105.7,106.8l-7.8,4.6V94c0-1.7-0.5-5.6-5.7-2.6c-3.5,2-6,6-6,9.4c0,2,3,1.4,6.8-2.2
						c0.3-0.3,0.7-0.7,1.4-1.5c0.5-0.5-1.8,2.1-1.8,2.2c1,8.3-2,16.5-2,16.5l-12.3,7.2V92.8l7.5-4.3v2.9c2-3.4,4.6-6.3,7.9-8.2
						c7.1-4.1,11.8-1.6,11.8,6.3L105.7,106.8L105.7,106.8z"/>
					<path class="st2" d="M140.2,71.9c0,8.8-6.7,19.2-14.9,24c-8.3,4.9-15,2.2-15-6.7s6.7-19.5,15-24.2
						C133.5,60.4,140.2,63.2,140.2,71.9z M132.6,76.4c0-5.1-3.3-6.7-7.3-4.4c-4,2.3-7.3,7.8-7.3,12.9c0,5,3.3,6.5,7.3,4.2
						C129.3,86.7,132.6,81.4,132.6,76.4z"/>
					<path class="st2" d="M87.7,96.8c0.3-0.2,0.6-0.1,0.6,0.2c0,0.3-0.3,0.7-0.6,0.9c-0.3,0.2-0.6,0.1-0.6-0.2
						C87.1,97.4,87.4,97,87.7,96.8z"/>
					<path class="st2" d="M90.3,95.8c0-0.3,0.3-0.7,0.6-0.8c0.3-0.1,0.5,0,0.5,0.4c0,0.3-0.3,0.7-0.6,0.8
						C90.4,96.3,90.2,96.1,90.3,95.8z"/>
				</g>
			</g>
		</g>
	</g>
</g>
<g id="freepik--character-4--inject-2">
	<g id="freepik--Character--inject-2">
		<g id="freepik--Bottom--inject-2">
			<path class="st21" d="M365.6,279.4c-0.1-2.5-1.1-27.7-1.1-27.7l11.9,9.3c-2.2,14.3-3,18.2-3.1,20.6l0,0c0,0.2,0.1,0.4,0,0.6
				c-0.1,2.9-3.4,4.3-5.9,6.1c-2.2,1.6-4.5,3-6.9,4.2c-1.9,0.9-5.5,0.8-6-0.3c3.1-2.2,6.7-4.7,9.2-7.3
				C364.9,283.7,365.7,282.4,365.6,279.4z"/>
			<path class="st11" d="M349.2,295.2c-0.3,0.8-0.2,1.8,0.4,2.5c2.2,1.6,4.9,2.4,7.6,2c2.7-0.1,5.3-1.1,7.5-2.7
				c1.6-1.2,3.7-3,5.5-3.3c1.4-0.2,2.7-0.7,3.9-1.5c0.5-0.5,0.5-2.7,0.5-2.7L349.2,295.2z"/>
			<path class="st9" d="M373.2,280.9c0.3,0,0.5,0.2,0.6,0.5c0.1,0.6,0.2,2.4,0.4,3.4c0.3,1.8,0.4,3.6,0.2,5.4
				c-0.2,1.1-2.9,1.8-4.5,2.4c-2,0.8-3.8,1.9-5.5,3.2c-2.4,1.7-5.2,2.6-8.1,2.8c-2.9-0.1-6.2-1.1-6.9-2.5c-0.9-1.7-0.1-2.7,4.3-4.6
				c0.8-0.4,3.8-2,4.8-2.6c2.7-1.6,5.4-3.9,6.7-6.8c0.1-0.4,0.3-0.7,0.6-0.9c0.3-0.1,0.6-0.1,0.9,0c0.7,0.1,1.4,0.4,2.1,0.7
				c0.6,0.3,1.4,0.6,1.4,1.4c0,0.3-0.1,0.5-0.2,0.8c-0.1,0.1-0.1,0.4,0,0.4s0.3,0,0.4-0.1c0.4-0.4,0.8-0.9,1.2-1.4
				c0.2-0.3,0.4-0.5,0.7-0.7c0.3-0.1,0.5-0.3,0.8-0.5C373.3,281.6,373.2,281.3,373.2,280.9z"/>
			<path class="st10" d="M364.4,295.9c0.8-0.6,1.6-1.2,2.4-1.7l0,0c0,0-5.2,3-7.2,1.5c-0.8-0.5-1-1.5-0.6-2.4c0-0.4-3.2-2-4.5-2.1
				l0,0c-0.4,0.2-0.7,0.3-0.9,0.4c-4.4,1.9-5.2,2.9-4.3,4.6c0.7,1.4,3.1,2.5,6.9,2.6C359.2,298.5,362,297.5,364.4,295.9z"/>
			<path class="st11" d="M359.4,292.2c-2.7,1-1.6,1.5-0.8,1.7s5.4-2.4,8.2-4.5s4.9-4.7,6-5.5c0.4-0.3,0.9-0.7,1.2-1
				c0-0.6-0.1-1.1-0.1-1.4c0-0.3-0.3-0.5-0.6-0.5c0,0.4,0,0.7-0.2,0.9c-0.2,0.2-0.5,0.3-0.8,0.5c-0.3,0.2-0.5,0.4-0.7,0.7
				c-0.4,0.5-0.8,0.9-1.2,1.4C367.2,287.7,363.5,290.3,359.4,292.2z"/>
			<path class="st17" d="M358.7,293.5c0.1,0,0.3-0.1,0.3-0.3c0-0.1,0-0.1-0.1-0.2c-1.3-1.4-3-2.1-4.9-2.1c-0.1,0-0.3,0.1-0.3,0.3
				c0,0,0,0,0,0c0,0.1,0.1,0.3,0.3,0.2c0,0,0,0,0,0c1.7,0,3.3,0.7,4.4,1.9C358.6,293.5,358.6,293.5,358.7,293.5z"/>
			<path class="st17" d="M361.1,292.1c0.1,0,0.1,0,0.2,0c0.1-0.1,0.1-0.3,0.1-0.4c0,0,0,0,0,0c-1.3-1.4-3-2.1-4.9-2.1
				c-0.1,0-0.3,0.1-0.2,0.3c0,0.1,0.1,0.3,0.3,0.3c0,0,0,0,0,0c1.7,0,3.3,0.7,4.4,1.9C361,292.1,361,292.1,361.1,292.1z"/>
			<path class="st17" d="M363.5,290.8c0.2,0,0.3-0.1,0.3-0.3c0-0.1,0-0.1-0.1-0.2c-1.3-1.4-3-2.1-4.9-2.1c-0.1,0-0.3,0.1-0.3,0.2
				c0,0.1,0.1,0.3,0.2,0.3c0,0,0.1,0,0.1,0c1.7,0,3.3,0.7,4.4,1.9C363.3,290.8,363.4,290.8,363.5,290.8z"/>
			<path class="st17" d="M365.8,289.3c0.1,0,0.1,0,0.2-0.1c0.1-0.1,0.1-0.2,0.1-0.4c0,0,0,0,0,0c-1.3-1.4-3-2.1-4.9-2.1
				c-0.1,0-0.3,0.1-0.3,0.3c0,0,0,0,0,0c0,0.1,0.1,0.3,0.3,0.2c0,0,0,0,0,0c1.7,0,3.3,0.7,4.4,1.9
				C365.6,289.3,365.7,289.3,365.8,289.3z"/>
			<path class="st17" d="M368,287.8c0.1,0,0.1,0,0.2,0c0.1-0.1,0.1-0.3,0.1-0.4c0,0,0,0,0,0c-1.4-1.5-3.3-2.3-5.4-2.1
				c-0.1,0-0.2,0.2-0.2,0.3c0,0.1,0.1,0.2,0.2,0.2c1.8-0.1,3.6,0.6,4.9,1.9C367.8,287.8,367.9,287.8,368,287.8z"/>
			<path class="st21" d="M390.4,261.1l11.6-1.2c0.5,8,0,17.1,0.4,24.6c0.1,1.4,1,11,0.6,14c-0.4,4.5-5.7,4.3-6.2,1.7
				s-0.8-13.9-0.9-15c-0.4-4.8-2.6-10.9-4.5-19.5C391.3,265.3,390.5,261.5,390.4,261.1z"/>
			<path class="st11" d="M395,302.2c-0.1,2,0.4,4,1.4,5.8c0.9,1.5,2.7,2.1,4.4,1.6c1.8-0.4,4-1.6,4.6-3.8c0.5-2,0.5-4.1,0.1-6.2
				L395,302.2z"/>
			<path class="st9" d="M402.3,283.6c0.7,0.1,0.9,3.5,1.2,7c0.4,3.7,1.5,5.3,1.8,8.4c0.4,3.5,0.2,5-1.1,7.1s-5.6,4.1-7.7,1
				c-1.7-2.5-1.7-5.2-1.5-8.7c0.3-2.9,0.4-5.9,0.3-8.9c-0.1-2.6-0.2-5.1,0.4-5.4c0,0.4,0.1,0.9,0.1,1.2s0.1,1.7,0.5,1.7
				c0-0.3,0-0.7,0-1c0-0.3,0-0.6,0.2-0.8c0.2-0.2,0.5-0.3,0.8-0.4c0.7-0.1,1.4-0.2,2.1-0.3c0.4,0,0.7,0,1.1,0c0.3,0,0.6,0.1,0.9,0.1
				c0.2,0.1,0.3,0.2,0.4,0.4c0,0.1,0,0.3,0,0.4c0,0.2,0,0.5,0.1,0.7c0,0.1,0.1,0.2,0.2,0.2s0.1-0.1,0.1-0.2c0-0.4,0-0.7,0-1.2
				c0-0.2,0-0.5,0-0.8S402.3,283.8,402.3,283.6z"/>
			<path class="st10" d="M405.1,298c0.1,0.5,0.4,3.9-0.5,4.4s-1.5-2-1.5-2c-1.9-0.4-3.9-0.2-5.7,0.7c0.2,0.5-0.4,2.3-1.3,1.9
				s-1.2-4.2-1.2-4.3c-0.2,3.3-0.1,6,1.5,8.4c2.1,3.1,6.5,1.1,7.7-1s1.5-3.6,1.1-7.1C405.3,298.6,405.2,298.3,405.1,298z"/>
			<path class="st11" d="M402.9,300.6c0,1.3,1.2,0.9,1.3-0.9s-0.8-6-0.8-9.1c-0.4-3.5-0.5-7-1.2-7c0,0,0,0.1,0,0.1l0.1,1.8
				c0,0.3,0,0.5,0,0.8c0,2.6,0.2,7.5,0.4,9.9C402.9,297.7,402.9,299.2,402.9,300.6z"/>
			<path class="st11" d="M397.9,301.1c-0.3-1.5-0.5-3-0.6-4.4c-0.2-2.3-0.7-7.2-1.2-9.8c-0.1-0.5-0.2-1-0.2-1.4
				c0-0.4-0.1-0.8-0.1-1.2c0,0,0,0,0-0.1c-0.5,0.2-0.5,1.6-0.5,3.4c0.1,1,0.2,2.3,0.4,3.8c0.6,3,0.4,7.4,0.7,9.1
				S398.1,302.3,397.9,301.1z"/>
			<path class="st17" d="M397.4,301.2h0.1c1.8-0.8,3.7-0.9,5.6-0.5c0.1,0,0.3-0.1,0.3-0.2c0-0.1,0-0.2-0.1-0.3c-2-0.5-4.1-0.4-6,0.5
				c-0.1,0.1-0.2,0.2-0.1,0.4C397.2,301.2,397.3,301.2,397.4,301.2z"/>
			<path class="st17" d="M396.9,298.4L396.9,298.4c2.1-0.8,4.2-1,6.3-0.5c0.1,0,0.3,0,0.3-0.2c0,0,0,0,0,0c0-0.1,0-0.3-0.2-0.3
				c-2.2-0.5-4.5-0.3-6.6,0.6c-0.1,0.1-0.2,0.2-0.1,0.4C396.7,298.4,396.8,298.5,396.9,298.4z"/>
			<path class="st17" d="M403.1,295.3c0.1,0,0.2-0.1,0.2-0.2c0.1-0.1,0-0.3-0.1-0.3c0,0,0,0,0,0c-2.2-0.7-4.5-0.5-6.6,0.5
				c-0.1,0.1-0.2,0.2-0.1,0.4c0.1,0.1,0.2,0.2,0.3,0.1c1.9-0.9,4.1-1.1,6.2-0.5C403,295.3,403,295.3,403.1,295.3z"/>
			<path class="st17" d="M402.9,292.8c0.1,0,0.2-0.1,0.2-0.2c0.1-0.1,0-0.3-0.1-0.3c0,0,0,0,0,0c-2.2-0.8-4.6-0.6-6.7,0.5
				c-0.1,0.1-0.2,0.2-0.1,0.4c0,0,0,0,0,0c0.1,0.1,0.2,0.2,0.4,0.1c0,0,0,0,0,0c1.9-1,4.2-1.2,6.3-0.4
				C402.9,292.8,402.9,292.8,402.9,292.8z"/>
			<path class="st15" d="M402.8,290.1c0.1,0,0.3-0.1,0.3-0.3c0-0.1-0.1-0.2-0.2-0.2c-2.2-0.7-4.7-0.5-6.8,0.5
				c-0.1,0.1-0.2,0.2-0.1,0.4c0.1,0.1,0.2,0.2,0.4,0.1c0,0,0,0,0,0c1.9-1,4.2-1.2,6.3-0.5C402.7,290.1,402.7,290.1,402.8,290.1z"/>
			<path class="st9" d="M395.6,185.8c2.2,5.3,4.6,9.1,4.8,19c0.3,21.2-0.2,36.5-0.2,36.5c0.1,1.9,1,0.9,2.1,10.5
				c0.6,6.2,0.7,12.4,0.5,18.6c0,0-5.4,2.7-10.4,0.6c-1.9-6.9-5.1-19.3-7.1-28.6c-1.8-8.4-3.5-20.7-3.5-20.7l-3.5,20.7
				c0.3,3.1,0.3,6.3,0.1,9.4c-0.4,5.7-3.4,19.7-3.4,19.7s-5.6,2.3-9.8-0.9c0,0-1.6-23-1.5-29.9c0.1-13.4,0.9-44.1,3.7-55.8
				L395.6,185.8z"/>
			<path class="st10" d="M402.9,268.3c-2,1.2-8.5,2-11.3,0.9l0.7,3.3c0,0,1.2,0.9,5.1,0.8s5.3-1.7,5.3-1.7L402.9,268.3z"/>
			<path class="st10" d="M375.4,268.8c-2.2,1-8.2,0.9-10.8-0.6l0.3,3.3c0,0,0.9,1.3,4.7,1.4s5.2-1,5.2-1L375.4,268.8z"/>
			<path class="st11" d="M381.6,221.7l-2-15c0,0-8.9-1.2-12.1-4.4c0,0,4,5.9,10,6.9l2.3,12.4l-1.7,20.5L381.6,221.7z"/>
		</g>
		<g id="freepik--Top--inject-2">
			<path class="st22" d="M375.9,151.4c-3.8,0-6.3,0.6-9.7,6.1s-8.7,14.2-8.7,14.2l-14.5,6l1.2,8.6c0,0,10.1-2.6,16-4.9
				c2.5-1,3.9-1.8,4.8-3.1c0.7-1,7.6-9.9,7.6-9.9L375.9,151.4z"/>
			<path class="st2" d="M386.4,151.4l5,0.6c3.3,0.9,4.8,2.4,5.1,5.3c0.6,3.2,0.5,6.5-0.3,9.6c-1.1,4.1-1.8,13.6-1.8,13.6
				c2.1,5,3.8,10.1,4.9,15.4c-11.9,7.5-29.5,5.2-34.3,0.5c0.7-4.8,1.6-9.9,2-13.8c0.1-3,0-6-0.3-9c-3.1-2.9-3.8-7.5-1.6-11.2
				c4.1-6.2,9.3-11.1,10.8-11L386.4,151.4z"/>
			<path class="st3" d="M386.4,151.4l5,0.6c3.3,0.9,4.8,2.4,5.1,5.3c0.6,3.2,0.5,6.5-0.3,9.6c-1.1,4.1-1.8,13.6-1.8,13.6
				c2.1,5,3.8,10.1,4.9,15.4c-11.9,7.5-29.5,5.2-34.3,0.5c0.7-4.8,1.6-9.9,2-13.8c0.1-3,0-6-0.3-9c-3.1-2.9-3.8-7.5-1.6-11.2
				c4.1-6.2,9.3-11.1,10.8-11L386.4,151.4z"/>
			<path class="st11" d="M394,139.1c0.1,1.2-0.4,2.1,0,3.3c0.4,1,0.7,2.1,0.9,3.1c0.3,1.6-0.4,4.3-2.4,4.5c0.5-0.9,0.7-1.9,0.4-2.9
				c-1,3.7-6.1,4-9.4,4c-3.1,0-5.9,0.2-8.6-1.3c-1.4-0.8-1.5-1.5-1.5-1.5s-0.3,0.3-0.2,1.6c-1-0.3-1.8-1.2-2-2.2
				c-0.2-1.4-0.1-2.8,0.2-4.1c0.1-0.4,0.8-4.8,1.1-4.7L394,139.1z"/>
			<path class="st11" d="M396.1,125.2l-3.3,2.5c-0.7-0.9-0.5-2.1,0.4-2.8C394,124.2,395.3,124.4,396.1,125.2z"/>
			<path class="st11" d="M386.9,148.4c0.1-2,4.9-4.9,7.4-9s1.6-11.1-1.7-12.3c0,0-0.1-0.9-0.1-1c-0.1-0.8-0.4-1.6-0.8-2.3
				c-1.5-2.5-3.9-4.2-6.7-4.7c-10.4-1.9-15.4,2-17.5,6.4c-0.7,1.5-1,3.1-1,4.7c0,2.5,1.7,4.6,4.1,5.2L386.9,148.4z"/>
			<path class="st21" d="M373.2,124.2c-2.1,0.8-4.1,3.9-4.4,12.7c-0.2,7.4,2,9.4,3.1,10s3.3,0.5,5.5,0.2l-0.1,4.2
				c0,0-1.7,1.6-1.2,2.6s2.6,2,6,1.1c3.8-1.1,4.7-3.5,4.7-3.5l0.4-9.4c0,0,1.2,1.4,3.5-0.5c1.9-1.5,2.6-4.3,1.3-5.8
				s-3.1-1.7-4.7-0.1l-1.1-0.6c-2.4-0.5-4.7-1.4-6.9-2.6C376.2,130.7,374,127.7,373.2,124.2z"/>
			<path class="st22" d="M377.4,147.1c2.3-0.2,7.2-1.4,8-3.3c-0.3,1-1,1.8-1.8,2.4c-1.5,1.2-6.3,2.4-6.3,2.4L377.4,147.1z"/>
			<path class="st11" d="M387.4,134.4l-0.2,4.1c-1.1,0-1.9-0.9-1.9-2c0,0,0-0.1,0-0.1C385.3,135.3,386.2,134.4,387.4,134.4z"/>
			<path d="M380.5,135.2c0,0.6-0.4,1.1-1,1.1c0,0,0,0,0,0c-0.6,0-1.1-0.4-1.2-1.1c0-0.6,0.4-1.1,1.1-1.2
				C379.9,134.1,380.5,134.5,380.5,135.2C380.5,135.2,380.5,135.2,380.5,135.2z"/>
			<path class="st11" d="M370,131.3l2.7-0.6c-0.1-0.7-0.8-1.2-1.5-1.1c0,0-0.1,0-0.1,0C370.3,129.8,369.9,130.5,370,131.3z"/>
			<polygon class="st22" points="375.1,133.8 375,139.9 371.7,139 			"/>
			<path class="st22" d="M378.7,141.2l-3.2,0.9c0.2,0.9,1,1.5,1.9,1.3c0,0,0.1,0,0.1,0C378.4,143.1,378.9,142.2,378.7,141.2z"/>
			<path class="st16" d="M376.8,143.4c0-0.9,0.8-1.7,1.7-1.6c0,0,0,0,0,0h0.1c-0.1,0.7-0.6,1.3-1.2,1.6
				C377.3,143.5,377,143.5,376.8,143.4z"/>
			<path d="M372.6,134.5c0,0.6-0.4,1-1,1s-1-0.4-1-1s0.4-1,1-1S372.6,133.9,372.6,134.5z"/>
			<polygon class="st2" points="335.7,166.2 358.8,174.8 364.8,202.6 364.3,203.1 342.3,194.5 335.1,166.8 			"/>
			<polygon class="st23" points="358.3,175.3 364.3,203.1 364.8,202.6 358.8,174.8 			"/>
			<polygon class="st24" points="335.1,166.8 358.3,175.3 364.3,203.1 342.3,194.5 			"/>
			<path d="M342.1,172.6l-0.2-0.9c-0.1-0.5,1.3-0.2,3,0.6l4.2,1.3c1.8,0.9,3.5,1.5,3.6,2l0.2,0.9L342.1,172.6z"/>
			<path class="st9" d="M340.8,168.3c-0.1-0.3,0.5-0.2,1.2,0l1.3,0.5c0,0-0.5-1.4,2.6-0.4c3.5,1,3.5,2.7,3.5,2.7
				c0.5,0.2,1.1,0.5,1.7,0.6c1.2,0.4,1.3,0.6,1.4,1l0.2,0.6l-11.8-4.3C340.9,169,340.8,168.7,340.8,168.3z"/>
			<path class="st9" d="M342,170.1c1.1,0.5,1.5,0.8,1.7,1.6s0.2,1.3,0.2,1.3l6.1,2.5c0,0-0.3-1.3-0.4-1.8s0.8-0.4,1.8,0.1l-0.2-1.1
				l-9.6-3.7L342,170.1z"/>
			<path class="st9" d="M341.8,172.6l-0.2-0.9c-0.1-0.5,1.3-0.2,3,0.6l4.2,1.3c1.8,0.9,3.5,1.5,3.6,2l0.2,0.9L341.8,172.6z"/>
			<path class="st18" d="M345.9,189c-0.2,0.5-2,1.7-4.6,1.5l-0.4-1.6L345.9,189z"/>
			<path class="st21" d="M337.6,176.3c0,0,0.8,3,1,3.8s4,2.6,5.9,2.9c3.6,0.5,4,1.3,3.1,3.9c-0.9,2.4-3.2,3.2-6.5,2.8
				c-2.1-0.4-3.8-2-4.5-4c-1-3.1-0.4-6.3-0.8-8.1S336.7,175.2,337.6,176.3z"/>
			<path class="st21" d="M389.6,194.4c-1.3,1-3.1,1.1-5.1,1.9s-3.3,1.6-4.3,1.6s-0.3,1.7,1,1.8s2.8-0.6,2.8-0.1
				c0,0.9-1.6,1.7-2.2,2.1c-1.8,1.1-4.3,1.6-5.6,3.4c-0.2,0.2-0.2,0.4-0.2,0.6c0.1,0.3,0.4,0.5,0.7,0.5c0.3,0,0.7,0,1-0.1
				c0.3-0.1,0.7,0,0.9,0.2c0.2,0.2,0.3,0.5,0.5,0.7c0.2,0.1,0.3,0.2,0.5,0.2c0.3,0.1,0.7,0.1,1,0c0.3-0.1,0.6-0.1,0.9-0.1
				c0.5,0.1,1,0.2,1.5,0.4c2.1,0.6,4.3-0.6,6-1.7c3.6-2.3,4.5-4.2,6.4-5.9s10.2-8.4,13.9-12.3c4-4.1,2.4-4.5,0.3-9.8
				s-7.2-15.6-9.1-19.7c-2.2-4.7-4.3-5.4-9-6.1c-2.2,2.4-3.2,9.9,2,16.8l6.4,12.8c0,0-1.2,1.4-4.5,5.9
				C392.8,190.8,391,193.4,389.6,194.4z"/>
		</g>
	</g>
</g>
<g id="freepik--character-3--inject-2">
	<g id="freepik--character--inject-2">
		<g id="freepik--Botom--inject-2">
			<path class="st25" d="M257.9,199.2c-0.1-2.6-1.6-29.6-1.6-29.6l12.9,9.7c-2,15.3-2.9,20-3,22.5l0,0c0.1,0.2,0.1,0.4,0,0.6
				c-0.1,3-3.6,4.5-6.4,6.5c-2.4,1.7-4.9,3.2-7.5,4.4c-2,0.9-6,0.8-6.4-0.4c3.4-2.4,7.3-4.9,10-7.7
				C257.3,203.9,258.1,202.4,257.9,199.2z"/>
			<path class="st11" d="M242.1,216c-0.3,0.9-0.2,1.9,0.4,2.6c2.1,1.7,4.9,2.5,7.6,2.1c2.7-0.1,5.4-1.1,7.5-2.9
				c1.6-1.3,3.8-3.1,5.5-3.5c1.4-0.2,2.7-0.7,3.9-1.5c0.5-0.5,0.5-2.9,0.5-2.9L242.1,216z"/>
			<path class="st10" d="M266.3,201c0,0,0.4,0,0.5,0.5s0.2,2.5,0.4,3.6c0.4,1.9,0.5,3.8,0.3,5.7c-0.3,1.2-2.9,1.9-4.6,2.5
				c-2,0.8-3.9,2-5.5,3.4c-2.4,1.7-5.2,2.7-8.2,2.9c-3.8-0.1-6.2-1.3-6.9-2.7c-0.9-1.8-0.5-3.1,3.9-5.1c1.7-0.8,3.4-1.8,5-2.8
				c2.6-1.7,4.6-4.1,5.8-6.9c0.1-0.4,0.3-0.7,0.7-0.9c0.3-0.1,0.6-0.1,0.9,0c1.2,0.2,2.3,0.5,3.5,0.9c0.6,0.3,1.4,0.7,1.4,1.5
				c0,0.3-0.1,0.5-0.2,0.8c-0.1,0.2-0.1,0.4,0,0.5s0.3,0,0.4-0.1c0.4-0.5,0.9-0.9,1.2-1.4c0.2-0.3,0.5-0.5,0.7-0.7
				c0.3-0.1,0.5-0.3,0.8-0.5C266.3,201.7,266.3,201.3,266.3,201z"/>
			<path class="st26" d="M246.1,211.9c5.5,0.6,7.8,4.4,7.1,7.1c-1.3,0.5-2.6,0.7-3.9,0.7c-3.8-0.1-6.4-1.3-7.1-2.8
				C241.3,215.2,242.1,213.3,246.1,211.9z"/>
			<path class="st17" d="M253.5,212.7c0.1,0,0.1,0,0.2-0.1c0.1-0.1,0.1-0.3,0.1-0.4c-1.2-1.5-3-2.3-4.9-2.3c-0.1,0-0.3,0.2-0.2,0.3
				c0,0.2,0.1,0.3,0.3,0.3c0,0,0,0,0,0c1.7,0,3.3,0.7,4.4,2C253.4,212.6,253.4,212.7,253.5,212.7z"/>
			<path class="st17" d="M255.7,211.3c0.1,0,0.1,0,0.2-0.1c0.1-0.1,0.1-0.3,0.1-0.4c-1.2-1.5-3-2.3-4.9-2.3c-0.2,0-0.3,0.1-0.3,0.3
				c0,0.2,0.1,0.3,0.3,0.3c1.7,0,3.3,0.7,4.4,2C255.5,211.3,255.6,211.3,255.7,211.3z"/>
			<path class="st17" d="M257.9,209.5c0.1,0,0.1,0,0.2-0.1c0.1-0.1,0.1-0.3,0-0.4c-1.2-1.4-3-2.3-4.9-2.3c-0.2,0-0.3,0.2-0.3,0.3
				c0,0,0,0,0,0c0,0.1,0.1,0.3,0.3,0.3c0,0,0,0,0,0c1.7,0,3.3,0.7,4.4,2C257.7,209.5,257.8,209.5,257.9,209.5z"/>
			<path class="st17" d="M260.1,207.7c0.1,0,0.1,0,0.2-0.1c0.1-0.1,0.1-0.3,0.1-0.4c-1.3-1.6-3.3-2.4-5.3-2.3
				c-0.1,0-0.3,0.1-0.3,0.3c0,0,0,0,0,0c0,0.1,0.1,0.3,0.3,0.3c0,0,0,0,0,0c1.9-0.1,3.7,0.7,4.9,2.1
				C260,207.7,260,207.7,260.1,207.7z"/>
			<path class="st25" d="M281.3,177.9l13.6-2.4c0.2,8.4-0.4,19.6-0.7,27.3c0,1.5,0.6,11.5,0.1,14.6c-0.7,4.6-6.6,4.2-7.1,1.4
				s-0.6-14.4-0.7-15.6c-0.2-5-2.8-13.6-4.5-22.6C281.9,180.2,281.4,178.3,281.3,177.9z"/>
			<path class="st11" d="M285.1,220.8c-0.1,2.1,0.3,4.2,1.3,6.1c1.1,1.6,3,2.4,4.9,1.9c2-0.3,4.6-1.4,5.3-3.7
				c0.6-2.1,0.8-4.3,0.4-6.4L285.1,220.8z"/>
			<path class="st10" d="M294.3,202c0.8,0.1,0.8,3.6,1,7.2c0.2,3.9,1.4,5.6,1.7,8.8c0.3,3.7,0,5.3-1.5,7.4s-6.6,4-8.8,0.7
				c-1.8-2.7-1.7-5.5-1.3-9.1c0.4-3.1,0.7-6.1,0.8-9.2c0-2.7-0.4-5.3,0.3-5.5c0,0.4,0,0.9,0.1,1.3s0,1.8,0.5,1.8
				c0.1-0.3,0.1-0.7,0.1-1c0-0.3,0.1-0.6,0.3-0.9c0.4-0.2,0.8-0.4,1.3-0.4c0.8-0.1,1.6-0.2,2.5-0.2c0.4,0,0.8,0,1.2,0
				c0.3,0,0.7,0.1,1,0.2c0.2,0.1,0.3,0.2,0.4,0.4c0,0.1,0,0.3,0,0.4c0,0.3,0,0.5,0,0.8c0,0.1,0.1,0.2,0.2,0.2s0.1-0.1,0.1-0.2
				c0-0.4,0-0.8,0-1.3c0-0.2,0-0.5,0-0.7S294.3,202.2,294.3,202z"/>
			<path class="st26" d="M297.1,220.1c0.2,1.9-0.3,3.8-1.4,5.4c-1.5,2.1-7,3.9-9.2,0.7c-1-1.6-1.4-3.5-1.4-5.4
				C286.7,218.5,294.9,217.9,297.1,220.1z"/>
			<path class="st17" d="M287.5,217h0.1c2.3-0.7,4.7-0.8,7.1-0.2c0.2,0,0.3,0,0.4-0.2c0-0.1,0-0.3-0.2-0.3c0,0,0,0,0,0
				c-2.5-0.6-5.1-0.5-7.5,0.3c-0.1,0-0.2,0.2-0.2,0.3c0,0,0,0,0,0C287.2,216.9,287.3,217,287.5,217z"/>
			<path class="st17" d="M294.6,214c0.1,0,0.2-0.1,0.3-0.2c0.1-0.1,0-0.3-0.1-0.3c0,0,0,0,0,0c-2.4-0.8-5.1-0.7-7.5,0.2
				c-0.1,0.1-0.2,0.2-0.2,0.3c0,0,0,0,0,0c0.1,0.1,0.3,0.2,0.4,0.1c2.2-0.8,4.7-0.9,7-0.2C294.5,214,294.6,214,294.6,214z"/>
			<path class="st17" d="M294.6,211.4c0.1,0,0.2-0.1,0.3-0.2c0.1-0.1,0-0.3-0.1-0.4c0,0,0,0,0,0c-2.5-0.9-5.2-0.9-7.6,0.2
				c-0.1,0.1-0.2,0.2-0.1,0.3c0,0,0,0,0,0c0.1,0.1,0.3,0.2,0.4,0.1c2.3-1,4.8-1,7.1-0.1C294.5,211.4,294.5,211.5,294.6,211.4z"/>
			<path class="st15" d="M294.5,208.6c0.1,0,0.2-0.1,0.3-0.2c0.1-0.1,0-0.3-0.1-0.3c0,0,0,0,0,0c-2.5-0.9-5.2-0.8-7.7,0.2
				c-0.1,0.1-0.2,0.2-0.1,0.3c0,0,0,0,0,0c0.1,0.1,0.3,0.2,0.4,0.1c2.3-1,4.8-1,7.2-0.2C294.4,208.6,294.5,208.6,294.5,208.6z"/>
			<path class="st10" d="M290.1,112.7c0,15.3,2,45.8,2,45.8c0.2,1.9,2.6,10.2,2.7,16.9c0.3,10.9-0.1,18.4-0.1,18.4s-5.8,2.2-9.9,0.5
				c0,0-5.3-21.9-6.7-29c-1.7-8.4-5.6-25-5.6-25l-2.8,22.3c0.5,4.8,0.5,9.7,0,14.5c-0.6,4.5-2.2,16.2-2.2,16.2s-5.5,1.9-10.1,0.4
				c0,0-1.8-29.1-2.1-33.2s-0.2-25.4,0.7-51.4L290.1,112.7z"/>
			<path class="st9" d="M272.6,140.5l-2.3-14.5c-2.9-0.2-5.7-1.4-7.8-3.5c0,0,0.4,3.3,6.5,5.5l2.1,12l-1.4,22.8L272.6,140.5z"/>
		</g>
		<g id="freepik--top--inject-2">
			<path class="st25" d="M262.3,66.3c-3.7,0.8-6.6,1.7-7.9,8.9c-1.1,6.4-3.8,21.9-3.8,21.9s-1.2,0.3-6.1,1.4c-4.5,1-7,1.9-9.5,0.9
				l2.4,9.6c3.9-0.2,8.4-0.4,13-0.8c3.9-0.3,7.4-0.7,8-2.3c1.2-3,5.7-20.5,5.7-20.5L262.3,66.3z"/>
			<path class="st2" d="M264.5,65.2c-3.8,0.4-8,1.6-9.5,7.2c-1.1,4.4-2.8,14.1-2.8,14.1c2.9,2.4,6.8,3.4,10.5,2.8l2.6-12.8
				L264.5,65.2z"/>
			<g id="freepik--Arm--inject-2">
				<path class="st27" d="M223.6,97c2.2-1.1,4.8-1.2,7.1-0.4c1.2,0.7,3.2,2.6,4.4,2.8c-2.3,0.1-4.6-0.1-6.9-0.4
					C226.5,98.7,224.9,98,223.6,97z"/>
				<path class="st27" d="M237,108.8c-1.4,0.5-2.9,0.7-4.3,0.6c-1.4-0.1-5.3-3.8-5.3-3.8l5.9-0.6L237,108.8z"/>
				<g id="freepik--arm--inject-2">
					<path class="st11" d="M231.5,203.8c0.8,0.4,1.8,0.3,2.6-0.1c0.3-0.1,0.5-0.4,0.5-0.8L229.6,46l-3.6,0.1l4.9,156.9
						C231,203.4,231.2,203.7,231.5,203.8z"/>
					<path class="st9" d="M229.1,46.8c0.4-0.1,0.6-0.6,0.5-1c-0.1-0.2-0.3-0.4-0.5-0.5c-0.8-0.4-1.8-0.3-2.6,0.1
						c-0.7,0.4-0.7,1.1,0.1,1.5C227.4,47.3,228.4,47.2,229.1,46.8z"/>
					<path class="st9" d="M214.3,37.2L214.3,37.2c0.3,0,0.4-0.2,0.4-0.4l-0.9-6.6c0-0.2-0.2-0.4-0.4-0.4c-0.2,0-0.4,0.2-0.4,0.4
						c0,0,0,0.1,0,0.1l0.9,6.6C214,37.1,214.1,37.2,214.3,37.2z"/>
					<path class="st17" d="M210.5,32.9c-0.2-2.9,1-5.8,3.2-7.7c0.8-0.7,1.9-1,2.9-0.6l0,0l26.2,11l-4.5,10.9l-26.2-11l0,0
						C211.1,34.9,210.5,34,210.5,32.9z"/>
					<path class="st1" d="M239.8,36.2c-2.2,1.9-3.4,4.7-3.2,7.7c0.3,2.6,2.3,3.5,4.4,1.8c2.2-1.9,3.4-4.7,3.2-7.7
						C243.9,35.4,242,34.6,239.8,36.2z"/>
					<path class="st10" d="M240.3,39.7c-0.6,0.5-0.9,1.2-0.8,2c0.1,0.7,0.6,0.9,1.1,0.5c0.6-0.5,0.9-1.2,0.8-2
						C241.4,39.5,240.8,39.3,240.3,39.7z"/>
					<path class="st9" d="M239.5,50.9c0.5,0,1-0.1,1.4-0.4c0.7-0.6,1-1.6,0.8-2.5l-0.9-7c0-0.2-0.2-0.3-0.4-0.3c0,0,0,0,0,0
						c-0.2,0-0.3,0.2-0.3,0.4l0.9,7c0.3,0.8-0.2,1.7-1,2c-0.5,0.2-1,0.1-1.4-0.2l-20.3-8.5c-1.9-0.9-3.2-2.7-3.6-4.7
						c0-0.2-0.2-0.3-0.4-0.3c-0.2,0-0.3,0.2-0.3,0.4l0,0c0.4,2.3,1.9,4.3,4,5.3l20.3,8.5C238.6,50.8,239,50.9,239.5,50.9z"/>
				</g>
				<path class="st25" d="M223.6,97c-1.1,0.7-1.2,2.6-0.6,3.9c0.4,1,0.6,2,0.6,3c0.2,0.9,1.2,1.1,1.2,1.7s-0.7,0.8,0.4,1.8
					c0.8,0.8,1.8,1.4,2.9,1.7c1.2,0,2.3-0.1,3.5-0.3c0.8-0.2,0.7-1.7-1.5-2.2c0,0,0.9,0,1.6,0s1.7-0.1,0.7-1.9s-3.1-5.7-4.2-6.6
					C227,96.9,225.2,96.5,223.6,97z"/>
				<path class="st27" d="M223.5,99.1c1.4-0.5,2.9-0.8,4.4-1l0.6-0.1c1.2,0.7,2.9,4.9,3.9,6.6c0.5,0.9,0.5,1.4,0.2,1.7
					c-0.1-0.3-0.2-0.7-0.3-1c-0.3-1.7-1.6-3.1-3.3-3.5c-1.3-0.4-2.6-0.7-3.9-0.7C224.1,100.9,223,100,223.5,99.1z"/>
				<path class="st27" d="M230.5,104c0.7-0.2,0.4-1.4-0.6-2.2c-0.8-0.6-1.6-1.1-2.5-1.5c-0.5-0.3-0.9-0.5-1.4-0.7
					c-0.2-0.1-0.5-0.1-0.6-0.3c-0.1-0.2-0.1-0.4,0-0.6c0.1-0.2,0.4-0.4,0.6-0.5c0.9-0.4,1.9-0.4,2.9,0c0.5,0.4,1,0.8,1.3,1.3
					c1.4,1.5,2.6,3.2,3.7,5c1,1.8-1.5,2.1-2.1,2l0,0C232.8,106.4,232.5,104.4,230.5,104"/>
				<path class="st27" d="M225.2,105.2c0.4,0.3,0.7,0.5,1.1,0.7c0.4,0.2,0.8,0.4,1.2,0.6c0.4,0.2,0.9,0.3,1.3,0.2
					c0.4,0,0.9-0.1,1.3-0.1c-0.4,0-0.9,0-1.3,0c-0.2,0-0.4,0-0.6-0.1c-0.2,0-0.4-0.1-0.6-0.2c-0.4-0.2-0.8-0.3-1.2-0.5
					S225.5,105.4,225.2,105.2z"/>
				<path class="st27" d="M224.7,102.1c0.4,0.3,0.9,0.6,1.4,0.9c0.5,0.3,1,0.5,1.5,0.7c0.5,0.2,1.1,0.2,1.6,0.2c0.6,0,1.1,0,1.6,0
					l-1.6-0.1c-0.5,0-1.1-0.1-1.6-0.3c-0.5-0.2-1-0.4-1.5-0.7C225.7,102.6,225.2,102.4,224.7,102.1z"/>
				<path class="st25" d="M242,100.2c-1.9,0-3.8-0.1-5.7-0.4c-1.5-0.4-2.9-1-4.3-1.8c-1.3-0.6-2.7-0.8-4.1-0.4
					c-2.4,0.5-3.2,0.8-4.4,1c-0.5,0.9,0.6,1.8,1.6,2c1.3,0,2.7,0.3,3.9,0.7c1.7,0.4,3,1.8,3.3,3.5c0.7,2.3,1.1,4.5,3.8,4.3
					c3.3-0.2,8-0.5,10.4-0.7L242,100.2z"/>
				<path class="st27" d="M227.9,97.6c-1.5,0.2-2.9,0.6-4.4,0.9l0,0l0,0c-0.1,0.2-0.1,0.5-0.1,0.7c0.1,0.2,0.2,0.4,0.4,0.6
					c0.3,0.3,0.8,0.6,1.3,0.7c-0.5-0.1-0.9-0.4-1.2-0.7c-0.2-0.2-0.3-0.4-0.4-0.6c-0.1-0.2,0-0.5,0.1-0.7l0,0
					c0.8-0.1,1.5-0.3,2.2-0.5L227.9,97.6z"/>
			</g>
			<path class="st11" d="M257.2,76.5c0.8-10.9,3.5-10.7,9.8-11.8c3.3-0.6,6.6-0.8,9.9-0.5c3.9,0.5,7.7,1.3,11.5,2.4l1.9,23V115
				c-7,4.5-26.8,1.8-34.3-2.7C255.7,105.5,256.6,84.7,257.2,76.5z"/>
			<g id="freepik--Head--inject-2">
				<path d="M279.2,55.1l0.2-3.3c0,0-2.1-2.9-2.3-5.3c-0.3-3,0.4-4.3,0.4-4.3c1.1-0.8,3.4-2.8,4.8-2.9c2-0.2,3.1,2.7,3.4,3.7
					c0.4,2.3,0.3,4.7-0.1,7c-0.3,1.7-0.9,3.4-1.9,4.8c-1.1,1.6-2.4,3-3.6,4.5c-0.1,0.1-0.2,0.3-0.4,0.2s-0.3-0.2-0.3-0.4
					C279.1,57.9,279.1,56.5,279.2,55.1z"/>
				<path d="M282.3,39.2c1.2,4.7-8.6,14.7-13.5,14.7s-8.2-6.5-8.1-11.4s2.1-7.5,9.5-8.9C274.9,32.7,281.2,34.8,282.3,39.2z"/>
				<path class="st25" d="M283.3,56.5c-1,0.5-2.2,0.3-3-0.5L279.9,66c-0.8,1.5-2,2.7-3.5,3.4c-2.4,1-5.5,1.5-7.5,0.8
					s-3.1-2.4-0.2-4.8l0.1-3c-1.1,0.1-2.3,0.1-3.4,0c-2.2-0.3-3.5-2.1-4.1-4.4c-1-3.8-0.7-9.5,0.8-16.8c2.4-1.9,10.4-2.1,15.5,1.2
					c-0.3,2.2-0.1,4.4,0.5,6.5c0.1,0.7,1,2.4,1.5,2.5c1,0.2,1.2-1,1.9-1.7c1.3-0.9,3-0.6,4,0.6c0.1,0.2,0.2,0.4,0.3,0.6
					C286.8,53.1,284.8,55.9,283.3,56.5z"/>
				<path class="st27" d="M268.8,62.4c3.5-0.3,7.8-1.9,8.9-3.5c0.6-0.9,1.2-1.9,1.5-2.9c-0.1,1.4-0.4,2.8-1,4.1
					c-0.9,1.4-4,3.7-9.5,4L268.8,62.4z"/>
				<path class="st11" d="M270.9,49.5c0,0.6,0.4,1,1,1s1-0.4,1-1s-0.4-1-1-1S270.9,48.9,270.9,49.5z"/>
				<path class="st11" d="M271.1,45.5l2.2,1c0.3-0.6,0-1.3-0.6-1.6C272,44.6,271.3,44.9,271.1,45.5
					C271.1,45.5,271.1,45.5,271.1,45.5z"/>
				<path class="st11" d="M262.5,46.3l2.3-0.6c-0.1-0.6-0.7-1-1.4-0.9c0,0,0,0-0.1,0C262.7,45,262.3,45.6,262.5,46.3z"/>
				<path class="st11" d="M262.3,49.3c0,0.6,0.4,1,1,1s1-0.4,1-1c0.1-0.5-0.2-1.1-0.7-1.2c-0.5-0.1-1.1,0.2-1.2,0.7
					C262.4,49,262.4,49.2,262.3,49.3L262.3,49.3z"/>
				<path class="st10" d="M275.7,46.3l7.5,2.7c-0.8-0.1-1.7,0.3-2.1,1l-5.3-2L275.7,46.3z"/>
				<path class="st10" d="M258,46.9c0.1,0.4,0.2,0.7,0.5,1c0.1,0.1,0.2,0.2,0.2,0.4c0.1,1,0.4,1.9,0.7,2.8c0.5,1.2,1.7,2,3.1,2
					c0.4,0,0.7,0,1-0.1h0.1c0.3-0.1,0.6-0.2,0.8-0.3h0.1l0.1,0l0.1-0.1l0.1-0.1l0.1-0.1c0,0,0.1-0.1,0.1-0.1l0.2-0.2
					c0.3-0.3,0.5-0.7,0.7-1.1c0.4-1,0.3-2.4,1-2.5h0.2c1,0,0.9,1.5,1.4,2.6c0.6,1.4,2.1,2.3,3.7,2.2h0.5c0.2,0,0.3,0,0.5-0.1h0.2
					h0.1h0.1c0.2-0.1,0.4-0.2,0.6-0.3l0.2-0.1c0.1-0.1,0.2-0.2,0.3-0.3c0.3-0.3,0.5-0.6,0.6-1c0.3-0.9,0.5-1.9,0.6-2.8
					c0-0.1,0.1-0.3,0.2-0.4c0.3-0.3,0.4-0.6,0.5-1c0-0.4-0.2-0.8-0.6-0.9l-0.5-0.1c-1.7-0.3-3.5-0.2-5.2,0.1c-1.6,0.5-2.2,1-3.1,1
					s-1.4-0.6-3-1.1c-1.6-0.4-3.3-0.5-4.9-0.2h-0.5C258.2,46.2,258,46.5,258,46.9z M268.9,47.9c0.1-0.2,0.3-0.3,0.5-0.4l0.1,0l0,0
					c0.1,0,0.2-0.1,0.2-0.1l0.2-0.1c0.2-0.1,0.5-0.2,0.7-0.2l0.3-0.1c0.2,0,0.5-0.1,0.7-0.1h0.2c1-0.2,2.1,0,3,0.6
					c0.4,0.3,0.2,1.8,0.1,2.6c0,0,0,0,0,0.1c0,0,0,0,0,0.1c0,0.1,0,0.2-0.1,0.3c0,0.1,0,0.1,0,0.2l0,0c0,0.1-0.1,0.2-0.1,0.3
					s0,0.1,0,0.1c0,0,0,0,0,0.1c0,0,0,0,0,0.1c0,0,0,0.1,0,0.1l-0.1,0.1l-0.1,0.1l-0.1,0.1c-0.5,0.7-1.4,1.2-2.3,1.1
					c-0.9,0.1-1.7-0.3-2.4-0.9c-0.4-0.4-0.6-0.9-0.8-1.5C268.6,49.4,268.6,48.6,268.9,47.9L268.9,47.9z M259.5,47.1
					c0.1-0.1,0.2-0.2,0.4-0.2l0,0l0.2-0.1c0,0,0.1,0,0.1,0h0.1h0.1l0,0h0.1l0.4-0.1h0.9c0.2,0,0.5,0,0.7,0.1c1,0.1,1.9,0.5,2.6,1.2
					c0.3,0.7,0.3,1.5,0.1,2.3c0,0.2-0.1,0.4-0.1,0.6l0,0v0.1l0,0c0,0,0,0,0,0.1c0,0,0,0.1-0.1,0.1c0,0,0,0.1-0.1,0.1l0,0
					c0,0,0,0.1,0,0.1c0,0,0,0,0,0.1l0,0c-0.5,0.8-1.4,1.2-2.4,1.1c-0.4,0-0.8-0.1-1.2-0.3c-0.9-0.5-1.4-1.4-1.6-2.4
					C259.4,48.9,259.2,47.5,259.5,47.1L259.5,47.1z"/>
				<path class="st27" d="M263.3,53.3l3.5,0.9l0.6-5.5c-0.1-0.1-0.3-0.2-0.5-0.2h-0.2c-0.1,0-0.1,0-0.2,0.1
					C266.5,48.7,263.3,53.3,263.3,53.3z"/>
				<path class="st27" d="M270.6,55.6l-4.1,0.9c0.2,1.1,1.2,1.9,2.3,1.7c0.1,0,0.1,0,0.2,0C270.1,57.8,270.8,56.7,270.6,55.6z"/>
				<path class="st14" d="M270.1,56.2c0.2,0,0.3,0,0.5,0c-0.1,0.9-0.7,1.7-1.6,1.9c-0.2,0-0.4,0-0.7,0
					C268.4,57.1,269.1,56.3,270.1,56.2z"/>
			</g>
			<path class="st27" d="M295.5,122.7c1.8,0.5,4.2-1.8,4.8-2.6s-0.2-2.7-0.6-4.3s0-4.3-2-3.5S291.6,118.5,295.5,122.7z"/>
			<path class="st25" d="M288.5,67.8c5.3,1,5.5,1.5,8.9,7.5c3.6,6.4,9.2,16.7,10.3,19.2s2.3,4.3-0.9,8.2
				c-2.8,3.4-11.1,13.4-12.3,14.8c-1.1,1.3,0.1,5,3.9,4.4c0,0-2.8,2.5-4.4,2.2c-1.4-0.2-3.5-1.4-5.4-5.5c-1.2-2.6-0.2-4.6,1.7-7.5
				c2.2-3.4,7.1-13,7.1-13l-9.4-15.6C287.9,82.5,284.1,72.3,288.5,67.8z"/>
			<path class="st2" d="M288.4,66.7c3,0.8,4.8,1.1,6.2,3s9.3,16.6,9.3,16.6c-1.9,3.9-5.8,6.4-10.2,6.5l-6.3-9.6
				C287.4,83.2,282.5,71.2,288.4,66.7z"/>
		</g>
	</g>
</g>
<g id="freepik--character-2--inject-2">
	<g id="freepik--character--inject-2_1_">
		<path id="freepik--shadow--inject-2_7_" class="st12" d="M245.3,379.8c12.2,6.1,17.9,10.2,11.6,14.6s-23.7,12.8-23.7,12.8
			l-2.3,7.6l-24.9-14.4v-8.6c0,0,15.4-10.6,21.4-12.6S238.2,376.3,245.3,379.8z"/>
		<path class="st14" d="M211,418.4c0,0,3.8,9.2,3.9,12.9c0.2,3.8,1.1,5,0.5,9.2c-0.1,0.9-0.6,2.7-0.7,3.4c-0.1,0.6,0.2,1.2,0.8,1.3
			c0.1,0,0.1,0,0.2,0c1.6,0.3,4.4-2.8,5.7-6.1c1.3-3.9,2.4-7.8,3.3-11.9c0.1-0.9-0.1-1.8-0.5-2.7c-0.2-0.5-0.5-0.9-0.8-1.4
			c-0.5-1.6-0.8-4.8-1.3-7L211,418.4z"/>
		<path class="st11" d="M227.8,430.7c0.2,0.4,0.4,0.8,0.4,1.2c0,0.8-1.7,3.2-2.3,4.1c-0.9,1.2-1.4,2.8-1.2,4.3
			c0,2.5-0.9,4.9-2.5,6.8c-2.1,2.6-5,4.5-8.3,5.4c-4,1.2-5.4-0.8-5.4-0.8s-1.2-1.9-0.5-2.7S227.8,430.7,227.8,430.7z"/>
		<path class="st10" d="M223.3,423.2c0.1,0,0.3,0,0.6,0.3c0.1,0.1,0.9,1.9,1.4,2.9s2.2,2.7,2.4,4.3c-0.9,3-3.7,5-4.1,7.8
			s-0.5,6-4.8,9.5s-8.7,3.8-10.3,2.9s-1.4-2.6,0.8-5.8c2.3-3.4,3.9-10.9,3.9-10.9c0.2-1,0.3-2.1,0.4-3.2c0-1.1-0.1-2.1-0.3-3.1
			c-0.1-0.5,0-1,0.2-1.4c0.3-0.4,0.7-0.7,1.2-0.8c0.7-0.3,1.4-0.6,2.2-0.8c0.8-0.2,1.6-0.1,2.3,0.3c0.5,0.3,0.9,0.7,1.4,0.9
			c0.7,0.3,1.5,0.1,2.1-0.4c0.6-0.5,0.8-1.2,0.6-1.9C223.4,423.6,223.3,423.4,223.3,423.2z"/>
		<path class="st26" d="M221.4,445.3c-1.3-2.2-3.7-3.5-6.2-3.4c-4.6,0-6.1,2.3-6.8,3.7c-0.8,1.6-1.7,4.6,0.2,5.4
			c2,0.9,4.4,0.6,8.1-1.2C218.7,448.9,220.4,447.3,221.4,445.3z"/>
		<path class="st26" d="M220.6,431.5c-0.1,0.1-0.3,0.1-0.4,0c-0.7-0.4-4.4-1.1-6.6,0.9c-0.3-0.2-0.2-0.6,0.1-1.2
			c2.1-1.1,4.7-1.3,6.9-0.5c0.2,0.1,0.3,0.4,0.2,0.6c0,0,0,0,0,0C220.8,431.4,220.7,431.5,220.6,431.5z"/>
		<path class="st26" d="M213.1,435c-0.1-0.4,0-0.9,0.3-1.2c2.1-1,4.5-1.1,6.6-0.3c0.2,0.1,0.3,0.4,0.2,0.6c0,0.1-0.1,0.2-0.2,0.2
			c-0.1,0.1-0.3,0.1-0.4,0C218.8,434,215.3,433.2,213.1,435z"/>
		<path class="st26" d="M211.2,441.2c0-0.6,0.2-1.2,0.6-1.7c2.1-1.1,4.6-1.2,6.8-0.4c0.2,0.1,0.3,0.4,0.2,0.6c0,0,0,0,0,0
			c0,0.1-0.1,0.2-0.2,0.2c-0.1,0.1-0.3,0.1-0.4,0C217.4,439.6,213.3,438.8,211.2,441.2z"/>
		<path class="st26" d="M219.3,437.2c-0.1,0.1-0.3,0.1-0.4,0c-0.7-0.4-4.4-1.1-6.5,0.8c-0.1-0.5,0.1-1,0.4-1.4
			c2.1-1,4.5-1.1,6.6-0.3c0.2,0.1,0.3,0.4,0.2,0.6C219.4,437.1,219.3,437.1,219.3,437.2z"/>
		<path class="st14" d="M206.9,429.8c0,0-1.9,11.2-3.9,15.6s-3.1,6.5-6,9.8c-0.6,0.7-2,2.1-2.6,2.6c-0.5,0.4-0.5,1.1,0,1.6
			c0.1,0.1,0.1,0.1,0.2,0.1c1.3,1.2,6.7,1.5,9.7-0.8s5.8-7.1,7.6-8.9c0.7-0.7,1.3-1.4,1.9-2.1s0.4-1.4,0.5-2.2c0-0.4,0-1.4,0-1.4
			c0.4-1.9,1.5-4.9,2.1-6.7L206.9,429.8z"/>
		<path class="st11" d="M215.2,452.6c0,0.5,0,0.9-0.1,1.4c-0.3,0.7-3,2.3-4.1,2.9c-1.4,0.7-2.5,2-3.1,3.5c-1.1,2.3-3,4.2-5.4,5.2
			c-3.2,1.5-6.8,2-10.2,1.4c-4.3-0.6-4.8-3.1-4.8-3.1s-0.3-2.4,0.7-2.8S215.2,452.6,215.2,452.6z"/>
		<path class="st10" d="M214.3,443.5c0.1,0,0.3,0.1,0.5,0.6c0,0.2-0.1,2.2,0.1,3.4s0.9,3.6,0.4,5.1c-2.2,2.4-5.7,3.1-7.4,5.5
			s-3.1,5.5-8.7,6.8s-9.9-0.3-11-1.9s-0.2-3.1,3.3-5.2c3.8-2.2,8.6-8.5,8.6-8.5c0.7-0.9,1.3-1.8,1.8-2.8c0.4-1,0.8-2,1.1-3.1
			c0.1-0.5,0.4-0.9,0.8-1.2c0.5-0.2,1-0.3,1.5-0.2c0.8,0,1.6,0.1,2.4,0.3c0.8,0.2,1.5,0.6,2,1.3c0.4,0.5,0.5,1.1,0.9,1.5
			c0.6,0.6,1.4,0.8,2.2,0.6c0.8-0.2,1.3-0.8,1.4-1.6C214.2,443.8,214.3,443.7,214.3,443.5z"/>
		<path class="st26" d="M202.7,463.5c-0.2-2.7-1.9-5-4.4-6c-4.3-2-6.9-0.5-8.1,0.5c-1.5,1.2-3.6,3.6-2.2,5.2s3.9,2.5,8.2,2.5
			C198.5,465.7,200.8,464.9,202.7,463.5z"/>
		<path class="st26" d="M208,450.1c-0.2,0-0.3-0.1-0.4-0.2c-0.5-0.7-3.7-3.1-6.6-2.1c-0.2-0.3,0.1-0.7,0.7-1.1
			c2.5-0.1,5,0.8,6.8,2.7c0.2,0.2,0.1,0.5-0.1,0.6c0,0,0,0,0,0C208.2,450.1,208.1,450.1,208,450.1z"/>
		<path class="st26" d="M199.4,450.1c0.1-0.5,0.4-0.9,0.8-1.1c2.4,0,4.7,1,6.4,2.7c0.2,0.2,0.1,0.5-0.1,0.6c0,0,0,0,0,0
			c-0.1,0.1-0.2,0.1-0.3,0.1c-0.2,0-0.3-0.1-0.4-0.2C205.3,451.7,202.3,449.4,199.4,450.1z"/>
		<path class="st26" d="M194.9,455.1c0.3-0.6,0.7-1,1.3-1.3c2.5-0.1,4.9,0.9,6.6,2.7c0.2,0.2,0.1,0.5-0.1,0.6c0,0,0,0,0,0
			c-0.1,0.1-0.2,0.1-0.3,0.1c-0.2,0-0.3-0.1-0.4-0.2C201.5,456.4,198,453.7,194.9,455.1z"/>
		<path class="st26" d="M204.3,454.9c-0.2,0-0.3-0.1-0.4-0.2c-0.5-0.6-3.6-3-6.5-2.1c0.1-0.5,0.5-0.9,1-1.1c2.4,0,4.7,1,6.4,2.7
			c0.2,0.2,0.1,0.5-0.1,0.6c0,0,0,0,0,0C204.5,454.8,204.4,454.9,204.3,454.9z"/>
		<path class="st2" d="M231.7,365.7c-4.6,3.4-20.7,12.6-27.2,18.7c-1.9,1.7-2.5,4-2,9c0.6,6.8,6,29.9,6,29.9c0.7,1.3,2-1.2,2-1.2
			l25.5-32.3L231.7,365.7z"/>
		<path class="st28" d="M231.7,365.7c-4.6,3.4-20.7,12.6-27.2,18.7c-1.9,1.7-2.5,4-2,9c0.6,6.8,6,29.9,6,29.9c0.7,1.3,2-1.2,2-1.2
			l25.5-32.3L231.7,365.7z"/>
		<path class="st28" d="M209.6,416.2c5.9-4.9,24.9-35,24.9-35l0,0c-2.6-2.2-3.9-9.8-3.9-9.8c-1,2.9,0.1,7.4,0.9,9
			c-1.5,1.3-10,8.3-15.8,12.9c-1.8,1.2-3.1,3.1-3.5,5.3C210.9,404.9,209.4,414.9,209.6,416.2z"/>
		<path class="st2" d="M231.7,365.7L231.7,365.7l32.8,7.2c-1.6,6-2.1,9.1-3.7,12.3s-3.5,6.6-12,10.8c-8.2,4-18.2,8.2-20.2,9.2
			c-1.5,0.7-2.2,3.7-2.9,7.7c-0.7,4.1-0.8,7.3-4.9,16c-4,8.4-4.8,10.3-4.8,10.3s-6.2,0.6-10.2-3c0,0,5.6-29,6.8-34.2
			c0.7-2.9,0.7-4.5,4.3-7.6c3.1-2.7,16.9-13.2,16.9-13.2S228.2,373.7,231.7,365.7z"/>
		<path class="st28" d="M231.7,365.7L231.7,365.7l32.8,7.2c-1.6,6-2.1,9.1-3.7,12.3s-3.5,6.6-12,10.8c-8.2,4-18.2,8.2-20.2,9.2
			c-1.5,0.7-2.2,3.7-2.9,7.7c-0.7,4.1-0.8,7.3-4.9,16c-4,8.4-4.8,10.3-4.8,10.3s-6.2,0.6-10.2-3c0,0,5.6-29,6.8-34.2
			c0.7-2.9,0.7-4.5,4.3-7.6c3.1-2.7,16.9-13.2,16.9-13.2S228.2,373.7,231.7,365.7z"/>
		<g id="freepik--top--inject-2_1_">
			<path class="st14" d="M228.5,333.3c-1.9,2.6-11.3,14.2-11.3,14.2c-1.9-2.4-4.1-5.4-6.1-8c-2-2.8-3.6-6-4.7-9.2
				c-0.5-1.2-1-2.4-1.6-3.6c-0.6-1.2-1-2.5-1.2-3.8c0-0.7-1.7-0.5-2.1,1.5c-0.1,1.4-0.1,2.8,0.2,4.2c-0.8-0.2-2-0.8-3.7-1.3
				s-5-1.8-5.1,0.3c0,0.5,0.2,1,0.1,1.4c-0.1,0.2-0.2,0.4-0.3,0.6c-0.4,0.8-0.4,1.7,0.1,2.5c0.1,0.2,0.2,0.3,0.3,0.5
				c0.1,0.4-0.2,0.8-0.3,1.1c0,0.5,0.1,0.9,0.3,1.3c0.3,0.6,0.7,1.1,0.9,1.7c0.1,0.4,0.3,0.7,0.5,1.1c0.4,0.8,1.1,1.3,1.9,1.6
				c1.1,0.4,2.3,0.8,3.9,1.3c1.3,0.4,2.2,2.1,3.6,5c3.4,6.7,4.2,7.5,7.6,12.9c0.3,0.5,0.7,1,1,1.4c3.3,4.5,5.2,3.2,10.8-1.7
				c6.9-6,12.6-12,12.6-12l2.6-20.9C234.3,326.5,230.4,330.7,228.5,333.3z"/>
			<path class="st9" d="M241.1,324.5c-4.3,0.4-6.2,1.7-8.9,4.4s-9.2,11.2-9.2,11.2s-0.4,5.1,8.8,10.8l8.6-7.4L241.1,324.5z"/>
			<path class="st16" d="M199.8,329.1c1.3,0.3,1.7,1,1.9,2.8c0.1,1.1,0.6,3,1.9,3.6c-0.6,0-1.1-0.2-1.6-0.5c-0.6-0.5-0.8-0.5-1-0.2
				c-0.2,0.2-0.5,0.4-0.7,0.5c0.4,0.4,0.6,1.1,0.3,1.6c-0.4,1-3.3,0.9-5.5,0.1c0,0,3.8,1,4.5-0.1s-1.6-2.6-3-2.8c0,0,3.7,0.8,4-0.3
				s-1.4-2.1-3.4-2.4c0,0,3.1,0.6,3.4-0.4C200.8,330.4,200.5,329.5,199.8,329.1z"/>
			<path class="st16" d="M217.2,347.5c2.2,2.6,3.5,5.8,3.8,9.2c0,0,1.1-4.7-2.7-10.6L217.2,347.5z"/>
			<path class="st2" d="M233.5,337.8c1-10.1,3.4-12.9,8.6-13.4l8.6-0.6c2.5,0.6,11.7,3.7,14.1,5.2c1.7,1,2.3,4.9,2.4,11.2
				c0.1,5.1,0,9.4-0.5,16.4c-0.3,7-1.3,13.9-3.1,20.7c-7.2,2.3-25.8-0.8-33.5-10.5c0.8-2.7,2.1-5.3,2.7-9.5
				C233,348.4,233.2,341,233.5,337.8z"/>
			<path class="st10" d="M234.9,299.9c0.2,0.3,0.5,0.5,0.9,0.7c-0.6,0-1.2,0.5-1.4,1.1c-0.1,0.6-0.1,1.3,0.2,1.8
				c0.3,0.8,0.8,1.5,1.4,2.1c0.7,0.5,1.5,0.9,2.4,1.2c0.5,0.4,1,0.8,1.5,1.3c0.7,0.5,1.4,1.1,2.2,1.6c1.5,1.1,3,2.1,4.6,3
				c1.5,0.9,3.1,1.6,4.7,2.2c1.7,0.6,3.2,0.1,5,0.2l-0.2,5c0,0,0.6-1.2,1.3-2.5c0.6-1.2,3.1-7.2,3.1-7.2c1-2.4,2.2-4.9,2.1-7.5
				c-0.1-2.1-0.6-4-2.2-4.9c-0.1-2.5-0.7-3.7-2.5-5c-1.3-0.9-2.7-1.4-4.3-1.6c-1.7-0.2-3.5-0.1-5.2,0.2c-4.8,0.8-9.7,2.2-14.3-0.1
				c-0.1,0.7,0,1.5,0.3,2.2c0.6,1.5,1.6,2.9,2.8,3.9l-2.7-0.3c-0.1,0-0.2,0-0.3,0c-0.1,0.1-0.1,0.2-0.1,0.3
				C234,298.3,234.3,299.2,234.9,299.9z"/>
			<path class="st14" d="M251.7,299c0,1.6,1.5,4.3,3.8,6.2c-0.3,1.7-0.4,3.5-0.1,5.3c0.1,0.4,0.2,0.7,0.4,1.1
				c0.2,0.3,0.5,0.5,0.9,0.6c0.5,0,0.7-0.3,0.9-0.7c0.2-0.5,0.5-1,0.8-1.5c0.1-0.2,0.3-0.4,0.4-0.6c1-1,2.5-1,3.5-0.1
				c0.3,0.3,0.5,0.6,0.6,0.9c1.1,2.5-0.9,5.9-2.7,6.4c-3.2,0.9-3.9-1.3-3.9-1.3l0.1,10.5c-0.9,2.7-5.8,5.3-9.8,4.8s-2.7-2.9-1.1-4.5
				l-0.2-3.6c-1.4,0.2-2.8,0.1-4.2-0.1c-1.7-0.3-3-1.9-3.7-4.4c-1.1-4.8-1.3-9.7-0.6-14.6c0.6-3,2.2-5,3.1-5.4
				c0,0.6,0.5,2.2,3.7,2.6C247,301,249.3,300,251.7,299z"/>
			<path class="st16" d="M245.3,322.5c2.3-0.2,4.6-0.8,6.7-1.9c1.2-0.6,2.5-3.2,2.8-4c0,0-0.1,3.6-1.7,5.1c-2.3,2.2-7.8,2.2-7.8,2.2
				L245.3,322.5z"/>
			<path class="st10" d="M248.3,304.9l2.6,1.2c0.4-0.7,0.1-1.6-0.7-2c0,0,0,0,0,0c-0.7-0.3-1.5,0-1.8,0.7
				C248.3,304.8,248.3,304.8,248.3,304.9z"/>
			<path class="st21" d="M248.1,315.2l-4.1,1.5c0.4,1.1,1.6,1.8,2.7,1.4c0,0,0.1,0,0.1,0C247.9,317.6,248.5,316.3,248.1,315.2z"/>
			<path class="st16" d="M245.7,318.1c0.1-1,1-1.9,2-1.8c0.2,0,0.3,0,0.5,0.1c-0.2,0.8-0.7,1.4-1.4,1.6
				C246.4,318.2,246,318.2,245.7,318.1z"/>
			<path class="st10" d="M238,305.7l2.5-1.3c-0.3-0.7-1.2-0.9-1.8-0.6c0,0,0,0,0,0C237.9,304.2,237.7,305,238,305.7z"/>
			<polygon class="st16" points="244.4,314 240.6,312.7 245,305.7 			"/>
			<path class="st11" d="M240.8,308.2c0,0.6-0.5,1.1-1.1,1.1c-0.6,0-1.1-0.5-1.1-1.1c0,0,0,0,0,0c0-0.6,0.5-1.1,1.1-1.1
				C240.3,307.1,240.8,307.6,240.8,308.2z"/>
			<path class="st11" d="M249.7,308.3c0,0.6-0.5,1.1-1.1,1.1s-1.1-0.5-1.1-1.1c0-0.6,0.5-1.1,1.1-1.1
				C249.2,307.2,249.7,307.7,249.7,308.3C249.7,308.3,249.7,308.3,249.7,308.3z"/>
		</g>
		<g id="freepik--Laptop--inject-2">
			<path class="st12" d="M203.5,385.6c0.3-0.4,0.6-0.8,1-1.2c3.9-3.6,11.3-8.4,17.5-12.4l28.4,16.4c0.1,0.1,0.2,0.2,0.1,0.4
				c0,0-0.1,0.1-0.1,0.1l-20.7,11.9L203.5,385.6z"/>
			<path class="st9" d="M194.9,377.2v0.5c0,0.7,0.4,1.3,0.9,1.6l33.1,19.1c0.3,0.2,0.6,0.3,0.9,0.2c0.3,0,0.7-0.1,1-0.2l18-10.4
				c0.6-0.3,0.9-1,0.9-1.6v-0.6l0,0c0,0.1,0,0.2-0.1,0.2l-19.8,11.4L194.9,377.2z"/>
			<path class="st11" d="M229.9,397.4v1.3c-0.3,0-0.7-0.1-0.9-0.2l-33.1-19.1c-0.6-0.3-0.9-1-0.9-1.6v-0.5L229.9,397.4z"/>
			<path class="st10" d="M194.9,377.2l19.6-11.3c0.4-0.2,0.8-0.2,1.1,0l34,19.6c0.1,0.1,0.2,0.2,0.1,0.3c0,0-0.1,0.1-0.1,0.1
				l-19.8,11.4L194.9,377.2z"/>
			<polygon class="st9" points="230,395.8 240.6,389.6 209.7,371.8 199,377.9 			"/>
			<polygon class="st11" points="199,377.9 199.4,378.1 209.7,372.2 240.2,389.9 240.6,389.6 209.7,371.8 			"/>
			<polygon class="st11" points="235.2,378.8 235,378.9 229.9,381.9 220.6,376.6 220.4,376.5 225.8,373.3 			"/>
			<polygon class="st9" points="235,378.9 229.9,381.9 220.6,376.6 225.8,373.6 			"/>
			<g id="freepik--arm--inject-2_1_">
				<path class="st14" d="M224.8,381c1.7-1.6,4.1-3.9,6.1-4.6c0.5-0.2,0.9-0.3,1.4-0.4c-0.7-0.1-1.4-0.2-2.1-0.4
					c-0.7-0.2-1.3-0.6-1.8-1.2c-0.2-0.2-0.3-0.6-0.1-0.8c0.1-0.1,0.2-0.1,0.3-0.1c1.5,0,2.7-0.3,4.1-0.4c0.6-0.1,1.2-0.1,1.9,0
					c0.6,0.1,1.1,0.3,1.7,0.5c2.5,0.9,4.8,1.6,8.4,0.8l6.4-3.4c0,0,1.4-0.3,3.4,3.1c2,3.4,0.8,5.3,0.8,5.3l-7.2,2.6l0,0H248
					c-1.1,0.6-2.2,1.1-3.4,1.5c-2.2,0.7-5.1-0.1-7.1-0.2c-2.4,0.1-4.8,0.6-7.1,1.5c-1.8,0.7-4-2-4.9-1.7S223.1,382.7,224.8,381z"/>
				<path class="st16" d="M233.2,374.9c0.9,0,1.9,0.1,2.8,0.4c-1.2,0.1-2.4,0.3-3.6,0.6c-0.7-0.1-1.4-0.2-2.1-0.4
					c-0.6-0.2-1.2-0.5-1.6-1C229.7,375.3,231.9,375,233.2,374.9z"/>
			</g>
			<path class="st9" d="M229.3,397.7c-0.6,0.3-1.3,0.2-1.9-0.1l-32.9-19c-0.6-0.3-1-0.9-1.1-1.6l-3.6-21.5c-0.1-0.7,0.1-1.5,0.6-2
				l34.2,19.8c0.4,0.2,0.7,0.7,0.8,1.2L229.3,397.7z"/>
			<path class="st10" d="M229.9,397.4l-0.2,0.1l-0.3,0.1l-3.9-23.3c-0.1-0.5-0.4-0.9-0.8-1.2l-34.2-19.8c0.1-0.1,0.3-0.3,0.4-0.4
				l34.3,19.8c0.4,0.3,0.7,0.7,0.8,1.2L229.9,397.4z"/>
			<path class="st11" d="M225.1,373.7l0.5-0.3c0.2,0.2,0.3,0.5,0.3,0.7l3.9,23.3l-0.2,0.1l-0.3,0.1l-3.9-23.3
				C225.4,374.2,225.3,373.9,225.1,373.7z"/>
			<path class="st2" d="M210.8,377.8c-0.5-1.8-1.7-3.3-3.3-4.3c-1.6-0.9-2.7-0.5-2.4,1c0.5,1.8,1.7,3.3,3.3,4.3
				C209.9,379.7,211,379.3,210.8,377.8z"/>
		</g>
		<path class="st14" d="M251.1,371.1c5.6-3.5,12.3-7.3,12.3-7.3l-3.7-17.5c0,0-1.5-7.5,0.6-12s4.7-5,4.7-5c1.7,0.9,3.3,1.9,4.8,3.2
			c2,1.8,2.2,6.2,3,11.3s2.3,20.3,2.7,23.3s0.5,4.4-3.6,6.3c-4.3,2-19.2,7-19.2,7L251.1,371.1z"/>
		<path class="st9" d="M264.8,328.9c1.6,0.8,3.2,1.7,4.6,2.8c0.7,0.7,1.8,1.2,2.6,5.1s2.3,15.7,2.3,15.7s0.2,1.7-4.1,2.7
			s-9.3-0.4-9.3-0.4s-1.9-8.5-2.3-11S257.3,330.9,264.8,328.9z"/>
	</g>
</g>
<g id="freepik--character-1--inject-2">
	<g id="freepik--character--inject-2_2_">
		<g id="freepik--bottom--inject-2">
			<path class="st9" d="M91,272.3c-0.4-0.1-0.4,1.2-0.3,1.8s1.9,2.5,5,3.3s7.6,0.3,9.5,0.3s5.1,1,7,1.3s5.3-0.2,6.4-1.2
				c0.4-0.4,0.6-1,0.5-1.5c0-1.3-0.1-1.5-0.2-1.5L91,272.3z"/>
			<path class="st10" d="M118.6,271c0.1,0.2,0.1,0.5,0.1,0.8c0.2,1.3,0.3,2.6,0.1,3.9c-0.5,0.9-1.4,1.4-2.3,1.6
				c-2.1,0.5-4.3,0.5-6.4-0.1c-1.6-0.4-3.2-0.7-4.8-0.7c-2.2,0.2-4.4,0.2-6.6,0c-1.7-0.1-3.3-0.5-4.8-1.2c-1.2-0.6-2.2-1.5-2.9-2.7
				c-0.1-1.8,0.9-3.6,2.6-4.3c1.5-0.7,3.2-1,4.9-0.8c1.8,0.1,3.2,0.4,4.9,0.3c1.1,0,2.2-0.2,3.3-0.7c0.5-0.4,0.9-0.9,1.1-1.4
				c0.3-0.6,0.4-1.1,0.9-1.1c0,0,7.7,0.1,8.5,0.2s0.9,3.2,1,3.8s0.1,1,0.2,1.5C118.5,270.4,118.6,270.7,118.6,271z"/>
			<path class="st26" d="M102.1,267.4c-0.1-0.1-0.3-0.1-0.4-0.2c-0.8-0.1-1.3,0.6-1.7,1.1c-0.2,0.4-0.3,0.7-0.4,1.1
				c-0.2,0.5-0.2,1-0.1,1.5c0,0.1,0.1,0.3,0.2,0.2s0.2-0.2,0.2-0.3c0.1-0.7,0.3-1.3,0.6-2c0.1-0.3,0.3-0.5,0.5-0.7
				c0.2-0.2,0.5-0.3,0.8-0.4c0.1,0,0.6,0,0.5-0.2c0,0-0.1-0.1-0.1-0.1L102.1,267.4z"/>
			<path class="st26" d="M104.2,267.4c-0.4-0.1-0.7,0-1,0.2c-0.3,0.3-0.5,0.6-0.6,1c-0.4,0.8-0.5,1.7-0.2,2.5
				c0.1,0.2,0.3,0.1,0.4-0.1c0.1-0.3,0.1-0.5,0.1-0.8c0.1-0.6,0.3-1.1,0.5-1.6c0.1-0.2,0.2-0.4,0.3-0.6c0.1-0.1,0.2-0.2,0.3-0.3
				l0.2-0.1h0.2c0-0.1-0.1-0.2-0.2-0.2L104.2,267.4z"/>
			<path class="st26" d="M106.4,266.9c-0.3,0.1-0.5,0.2-0.7,0.4c-0.2,0.2-0.3,0.4-0.3,0.7c-0.2,0.5-0.3,1.1-0.4,1.6
				c0,0.4,0.1,0.8,0.2,1.1c0.1,0.1,0.2,0.3,0.4,0.2s0.2-0.3,0.2-0.5s0-0.5,0-0.8c0-1,0.4-1.9,1-2.7c0,0,0-0.1,0-0.1
				c0-0.1-0.1-0.1-0.2-0.1C106.6,266.8,106.5,266.9,106.4,266.9z"/>
			<path class="st2" d="M99.8,267.5c-0.8,0-2.4,1-3.3,3.3c-0.5,1.7-0.7,3.5-0.5,5.3c-1.6-0.3-3-1-4.2-2.1c-0.4-0.4-0.8-0.9-1-1.4
				c-0.2-1.3,0.1-2.5,0.9-3.5c1.2-1.3,2.9-2.1,5.6-2.1c3-0.1,3.3,0.8,3.3,0.8L99.8,267.5z"/>
			<path class="st14" d="M117.7,259.6c0,0-0.2,4-0.6,5.8c-0.2,1-1.2,2.6-4.4,2.6c-1.7,0.1-3.2-0.9-3.8-2.5c-0.2-2.4-0.3-4.8-0.2-7.2
				L117.7,259.6z"/>
			<path class="st14" d="M162.7,252.2l-5.1-10.9l-9.9,2.5c0,0,8.2,12.1,9.1,13.2C158.1,258.7,162.7,252.2,162.7,252.2z"/>
			<path class="st10" d="M167.2,255.3c0.1,0.5,0.1,0.9,0,1.4l-0.4,4.8c0,0.6-0.1,1.3-0.3,1.9c-0.1,0.8-0.1,1.5-0.1,2.3
				c0,0.8,0,1.6,0,2.4c0,0.3,0,0.7,0,1c0.1,0.3-5,3.2-7.1,4.4l-0.4,0.2c-1.2,0.4-2.5,0.1-3.3-0.8c-0.9-2.2-0.3-4.6,1.4-6.2
				c0,0,0.3,0,0.2-2c0-1.4,0-2.9-0.2-4.3c-0.1-0.9-0.3-1.8-0.7-2.6c-0.5-0.7-0.8-1.6-0.9-2.4c0.1-0.6,0.4-1.2,0.8-1.7
				c0.3-0.5,0.8-1,1.2-1.4c1.1-0.9,2.3-1.5,3.6-1.8c0.3-0.1,0.5-0.1,0.8,0c0.4,0.1,0.6,0.5,0.9,0.9c0.7,0.7,1.4,1.3,2.3,1.7
				c0.9,0.5,1.5,1.2,1.9,2.1C167.2,255.1,167.2,255.2,167.2,255.3z"/>
			<path class="st2" d="M157.1,266.5c-0.2,0.3-0.5,0.6-0.7,1l0,0c-0.9,1.6-1.2,3.5-0.7,5.3c-3.6-0.3-4.5-2.4-4.5-2.4
				c0-1.3,0.7-2.5,1.9-3.1c0.2-0.2,0.5-0.3,0.8-0.4l0,0C154.8,266.4,156,266.3,157.1,266.5z"/>
			<path class="st2" d="M168.2,255.9c0.9,0.4,0.7,3,0.1,5.5s-0.9,3.4-0.6,5.5s0.5,3-0.4,3.8s-7.6,3.9-7.6,3.9
				c0.9-2.5,1.4-5.1,1.5-7.8c0.2-4.6,0.5-7.6,2.6-9.7C165,255.8,166.7,255.3,168.2,255.9z"/>
			<path class="st29" d="M168.2,255.9c0.9,0.4,0.7,3,0.1,5.5s-0.9,3.4-0.6,5.5s0.5,3-0.4,3.8s-7.6,3.9-7.6,3.9
				c0.9-2.5,1.4-5.1,1.5-7.8c0.2-4.6,0.5-7.6,2.6-9.7C165,255.8,166.7,255.3,168.2,255.9z"/>
			<path class="st9" d="M151.1,270.4c1.6,1.3,3.6,2.1,5.6,2.5c3,0.3,3.2-0.8,3.5-4.4s0.4-8.5,1.8-10.7s3.8-3.1,4.7-2.9
				c0.2-0.1,1.1,0.6,1.4,1c-1.5-0.1-3,0.5-4,1.6c-1.9,1.8-2.2,5.7-2.3,9.2s-0.2,7.6-3,8c-2.8,0.3-5.5-0.5-7.7-2.3
				C150.6,271.9,150.6,271,151.1,270.4C151.1,270.4,151.1,270.4,151.1,270.4z"/>
			<path class="st26" d="M157.3,265.2c-0.2,0.2-0.4,0.4-0.4,0.6c0,0.8,0.3,1.5,1,1.9c0.4,0.2,0.7,0.1,0.1-0.6
				C157.6,266.6,157.3,265.9,157.3,265.2z"/>
			<path class="st26" d="M157.2,262.7c-0.1,0.1-0.2,0.3-0.2,0.5c0.1,0.8,0.6,1.5,1.2,2c0.7,0.3,0.3-0.4,0-0.8
				C157.8,263.9,157.5,263.4,157.2,262.7z"/>
			<path class="st26" d="M157.1,260c-0.2,0.1-0.3,0.3-0.3,0.4c0,0.3,1.3,1.3,1.8,1.3s0.5-0.2,0-0.5S157.1,260,157.1,260z"/>
			<path class="st9" d="M152.6,252.2c0,0-14.8-20.2-20.2-27.7c-0.9-1.5-1.6-3-2-4.7c-0.6-2.4-4.8-17.3-4.8-17.3l-4.2,21.1
				c0.6,3.5,0.9,7.1,1,10.7c0.1,4.3-0.3,8.7-1.3,12.9c-2.2,10.2-3.5,15.6-3.5,15.6c-1.4,0.8-2.9,1.1-4.5,1.1c-4.4,0-4.8-1.9-4.8-1.9
				s-0.7-15.9-1-22.3s-0.8-12.7-1-16.8c-0.3-6.7,0-12.7,0.6-25c0.6-10.9,2.8-28.6,2.8-28.6l29-5.6c0,0,6.6,4.6,6.1,20.8
				c-0.4,10.8,0.6,33.6,0.6,33.6c5.2,3.6,5.7,6.2,9,14c1.6,3.8,5,11.6,6.1,15.2C156.5,248.4,152.6,252.2,152.6,252.2z"/>
			<path class="st11" d="M125.7,202.5l3.3-14.7c0,0,4.3-0.3,10.2-5c0,0-0.6,3.9-8.3,6.9l-3.9,12.5l2.3,13.8L125.7,202.5z"/>
		</g>
		<g id="freepik--top--inject-2_2_">
			<polygon class="st14" points="121.5,122.4 122.6,133.8 132.8,133.2 132,120.5 			"/>
			<path class="st16" d="M114.4,109.2c0,0-2.8,4.1-2.5,4.4c0.5,0.3,1.1,0.6,1.7,0.7L114.4,109.2z"/>
			<path class="st14" d="M120.8,99.2c-1.9,1-5.1,1.9-6.6,7.3c-0.2,0.9,0.1,2.4,0,3.5s-0.7,2.8-0.8,3.8c-0.1,5.5,1.4,7.6,2.4,8.5
				c0.8,0.7,4.7,1,6.8,0.4c2.6-0.8,8.1-3.5,10.8-7.7c3.1-5,3.7-11.6,0.2-14.2C129.9,98.2,125.1,97.6,120.8,99.2z"/>
			<path class="st16" d="M116.1,122.6c1.8,0.6,3.7,0.7,5.5,0.4l-0.1-1.5c-0.8,0.4-1.7,0.6-2.6,0.8C118,122.6,117,122.7,116.1,122.6z
				"/>
			<path class="st11" d="M117.9,97.2c-2.3,1.8-4.4,4.7-3,7.7c0.4,1,1.2,1.8,2.1,2.3c-0.1,0.7,0,1.4,0.4,2.1c0.4,0.5,0.9,0.9,1.5,1.1
				c0.1,0,0.1,0.1,0.1,0.1c0,0.1,0,0.1,0,0.2c0,0.3,0,0.6,0,0.9c0,0.3,0,0.5,0.2,0.7c0.2,0.2,0.5,0.3,0.8,0.2
				c0.3-0.1,0.6-0.3,0.7-0.6c0.2-0.2,0.3-0.5,0.6-0.8c0.4-0.7,1.2-1.2,2.1-1.3c0.9-0.1,1.8,0.4,2.3,1.2c0.4,1.3,0.3,2.7-0.4,3.9
				c-0.4,0.9-1.3,1.5-2.3,1.7c-0.6,0-1.3-0.2-1.7-0.7c0,0-0.4,4.5,3.3,6c2.5,0.6,5.2,0.5,7.6-0.3c0.4-0.2,1-1.4,1.3-1.7
				c0.6-0.7,1.1-1.3,1.7-2c0.9-1.1,1.7-2.3,2.3-3.5c1.5-2.8,2.1-5.9,1.8-9c-0.2-1.8-0.9-3.5-1.9-4.9
				C134.9,93.8,124.1,92.4,117.9,97.2z"/>
			<path class="st14" d="M134.5,127.8c3.8-0.9,8,1.8,10.4,7.8s5.7,17.2,6.3,21.3c0.3,2.2,1.1,3.5-1.8,4.9c-4.2,2-8.7,3.3-13.3,4
				c0.1-0.1-3-7.7-3-7.7l7.8-2.4l-2.1-6.3L134.5,127.8z"/>
			<path class="st2" d="M141.8,132.3c-0.8-3.1-1.9-5.2-7.8-4.9h-0.8c-2.1,0.3-5.1,0.5-10.6,0.9c-0.7,0.1-4.7,0.8-5.8,1l-0.9,0.5
				c-3.6,1.2-6.4,2.8-8.9,13.1c-0.7,2.9-0.3,5.6,3.3,8.4c-0.1,3,0.6,5.5,0.2,8.4c-1.2,9.1-1.9,14.2-1.9,14.2s8.2,3.8,20.5,2.6
				c5.2-0.4,10.2-2.5,14.2-5.8c-1.6-4.4-3.4-8.6-5.5-12.7C138.9,147.8,144.6,143.1,141.8,132.3z"/>
			<path class="st14" d="M119,129c-4,0.3-7.9,1.1-11.7,2.4c-6.6,2.2-16.2,5.3-16.2,5.3s-17.4-7.3-18.2-8.2s-1.1-3.3-1.4-4.4
				c-0.5-1.6-1.1-3.2-1.9-4.8c-0.5-1.2-1.8,0.3-1.8,1.8c0.1,2,0.3,2.8-0.2,3.2s-2.8-1.3-6.1-5c-1.9-2.1-3.4-4-4.3-3.2s0,1.7,1.4,3.7
				c0.7,0.9,1.3,1.8,1.9,2.7c0.2,0.3-0.3,0.6-0.5,0.8c-0.3,0.3-1,0.9-1,1.4c0,0.3,0,0.6,0,0.8c-0.2,0.6-0.9,1-1.1,1.6
				c-0.1,0.4,0.1,0.9,0,1.4c0,0.3-0.2,0.6-0.2,0.9c0,0.6,0.2,1.2,0.7,1.6c1.3,1.1,2.7,1.9,4.3,2.4c1.5,0.6,3.6,0.6,5.3,1.7
				c1.6,1,18.4,12.7,21.9,12.5c3.2-0.2,12.5-2,19.1-3.5c7.5-1.6,11.8-7.6,10-14.7C119,129.2,119,129,119,129z"/>
			<path class="st11" d="M137.5,100.5c0,0,3.1,1.6,3.2,7.9c0.1,4.5,0.2,10.5,0.3,16.2s1.5,16.7-0.9,18.4c-5.2,3.5-14.4,3.4-19.2,1.9
				s-2.4-12.2-3-15.8l-3.6,0.5c0.6-1.6,1.5-3.1,2.8-4.3c2.6-2.4,4.1-5.8,4.1-9.3c0.9,2.3,3.7,3.1,6.4,1.3S137.5,100.5,137.5,100.5z"
				/>
		</g>
	</g>
</g>
</svg>
